<svg xmlns="http://www.w3.org/2000/svg" xmlns:xlink="http://www.w3.org/1999/xlink" width="500" zoomAndPan="magnify" viewBox="0 0 375 374.999991" height="500" preserveAspectRatio="xMidYMid meet" version="1.0"><defs><g/><clipPath id="cd70ea1fef"><path d="M 182 147.332031 L 196.28125 147.332031 L 196.28125 161.582031 L 182 161.582031 Z M 182 147.332031 " clip-rule="nonzero"/></clipPath><clipPath id="f8bfd664f3"><path d="M 154.28125 147.332031 L 168 147.332031 L 168 161.582031 L 154.28125 161.582031 Z M 154.28125 147.332031 " clip-rule="nonzero"/></clipPath></defs><g fill="#e6e6e6" fill-opacity="1"><g transform="translate(88.302815, 200.746496)"><g><path d="M 17.078125 -16.03125 C 16.640625 -15.9375 16.203125 -15.835938 15.765625 -15.734375 C 15.328125 -15.640625 14.898438 -15.5625 14.484375 -15.5 C 12.472656 -15.289062 10.597656 -15.519531 8.859375 -16.1875 C 7.128906 -16.863281 5.65625 -17.914062 4.4375 -19.34375 C 3.226562 -20.78125 2.390625 -22.488281 1.921875 -24.46875 C 1.578125 -25.90625 1.390625 -27.34375 1.359375 -28.78125 C 1.328125 -30.226562 1.488281 -31.695312 1.84375 -33.1875 C 2.332031 -35.40625 3.234375 -37.300781 4.546875 -38.875 C 5.859375 -40.445312 7.582031 -41.660156 9.71875 -42.515625 C 12.050781 -43.535156 14.414062 -44.101562 16.8125 -44.21875 C 19.207031 -44.332031 21.597656 -43.925781 23.984375 -43 C 27.171875 -41.820312 29.609375 -40.070312 31.296875 -37.75 C 32.992188 -35.4375 34.0625 -32.628906 34.5 -29.328125 C 34.96875 -25.648438 34.691406 -22.160156 33.671875 -18.859375 C 32.648438 -15.566406 31.101562 -12.414062 29.03125 -9.40625 C 27.863281 -7.71875 26.46875 -6.003906 24.84375 -4.265625 C 23.226562 -2.523438 21.554688 -1.046875 19.828125 0.171875 C 18.222656 0.703125 16.742188 0.847656 15.390625 0.609375 C 14.035156 0.378906 12.890625 -0.125 11.953125 -0.90625 C 11.015625 -1.695312 10.363281 -2.65625 10 -3.78125 C 9.632812 -4.90625 9.640625 -6.101562 10.015625 -7.375 C 10.398438 -8.644531 11.222656 -9.878906 12.484375 -11.078125 C 13.328125 -11.835938 13.976562 -12.4375 14.4375 -12.875 C 14.90625 -13.3125 15.328125 -13.753906 15.703125 -14.203125 C 16.085938 -14.660156 16.546875 -15.269531 17.078125 -16.03125 Z M 20.671875 -28.859375 C 20.671875 -29.960938 20.398438 -30.828125 19.859375 -31.453125 C 19.316406 -32.078125 18.550781 -32.390625 17.5625 -32.390625 C 16.5625 -32.390625 15.757812 -32.078125 15.15625 -31.453125 C 14.5625 -30.828125 14.265625 -30.019531 14.265625 -29.03125 C 14.265625 -27.945312 14.554688 -27.066406 15.140625 -26.390625 C 15.734375 -25.722656 16.476562 -25.390625 17.375 -25.390625 C 18.34375 -25.359375 19.132812 -25.671875 19.75 -26.328125 C 20.363281 -26.984375 20.671875 -27.828125 20.671875 -28.859375 Z M 20.671875 -28.859375 "/></g></g></g><g fill="#e6e6e6" fill-opacity="1"><g transform="translate(122.758307, 200.746496)"><g><path d="M 17.078125 -16.03125 C 16.640625 -15.9375 16.203125 -15.835938 15.765625 -15.734375 C 15.328125 -15.640625 14.898438 -15.5625 14.484375 -15.5 C 12.472656 -15.289062 10.597656 -15.519531 8.859375 -16.1875 C 7.128906 -16.863281 5.65625 -17.914062 4.4375 -19.34375 C 3.226562 -20.78125 2.390625 -22.488281 1.921875 -24.46875 C 1.578125 -25.90625 1.390625 -27.34375 1.359375 -28.78125 C 1.328125 -30.226562 1.488281 -31.695312 1.84375 -33.1875 C 2.332031 -35.40625 3.234375 -37.300781 4.546875 -38.875 C 5.859375 -40.445312 7.582031 -41.660156 9.71875 -42.515625 C 12.050781 -43.535156 14.414062 -44.101562 16.8125 -44.21875 C 19.207031 -44.332031 21.597656 -43.925781 23.984375 -43 C 27.171875 -41.820312 29.609375 -40.070312 31.296875 -37.75 C 32.992188 -35.4375 34.0625 -32.628906 34.5 -29.328125 C 34.96875 -25.648438 34.691406 -22.160156 33.671875 -18.859375 C 32.648438 -15.566406 31.101562 -12.414062 29.03125 -9.40625 C 27.863281 -7.71875 26.46875 -6.003906 24.84375 -4.265625 C 23.226562 -2.523438 21.554688 -1.046875 19.828125 0.171875 C 18.222656 0.703125 16.742188 0.847656 15.390625 0.609375 C 14.035156 0.378906 12.890625 -0.125 11.953125 -0.90625 C 11.015625 -1.695312 10.363281 -2.65625 10 -3.78125 C 9.632812 -4.90625 9.640625 -6.101562 10.015625 -7.375 C 10.398438 -8.644531 11.222656 -9.878906 12.484375 -11.078125 C 13.328125 -11.835938 13.976562 -12.4375 14.4375 -12.875 C 14.90625 -13.3125 15.328125 -13.753906 15.703125 -14.203125 C 16.085938 -14.660156 16.546875 -15.269531 17.078125 -16.03125 Z M 20.671875 -28.859375 C 20.671875 -29.960938 20.398438 -30.828125 19.859375 -31.453125 C 19.316406 -32.078125 18.550781 -32.390625 17.5625 -32.390625 C 16.5625 -32.390625 15.757812 -32.078125 15.15625 -31.453125 C 14.5625 -30.828125 14.265625 -30.019531 14.265625 -29.03125 C 14.265625 -27.945312 14.554688 -27.066406 15.140625 -26.390625 C 15.734375 -25.722656 16.476562 -25.390625 17.375 -25.390625 C 18.34375 -25.359375 19.132812 -25.671875 19.75 -26.328125 C 20.363281 -26.984375 20.671875 -27.828125 20.671875 -28.859375 Z M 20.671875 -28.859375 "/></g></g></g><g fill="#e6e6e6" fill-opacity="1"><g transform="translate(157.213799, 200.746496)"><g><path d="M 17.078125 -16.03125 C 16.640625 -15.9375 16.203125 -15.835938 15.765625 -15.734375 C 15.328125 -15.640625 14.898438 -15.5625 14.484375 -15.5 C 12.472656 -15.289062 10.597656 -15.519531 8.859375 -16.1875 C 7.128906 -16.863281 5.65625 -17.914062 4.4375 -19.34375 C 3.226562 -20.78125 2.390625 -22.488281 1.921875 -24.46875 C 1.578125 -25.90625 1.390625 -27.34375 1.359375 -28.78125 C 1.328125 -30.226562 1.488281 -31.695312 1.84375 -33.1875 C 2.332031 -35.40625 3.234375 -37.300781 4.546875 -38.875 C 5.859375 -40.445312 7.582031 -41.660156 9.71875 -42.515625 C 12.050781 -43.535156 14.414062 -44.101562 16.8125 -44.21875 C 19.207031 -44.332031 21.597656 -43.925781 23.984375 -43 C 27.171875 -41.820312 29.609375 -40.070312 31.296875 -37.75 C 32.992188 -35.4375 34.0625 -32.628906 34.5 -29.328125 C 34.96875 -25.648438 34.691406 -22.160156 33.671875 -18.859375 C 32.648438 -15.566406 31.101562 -12.414062 29.03125 -9.40625 C 27.863281 -7.71875 26.46875 -6.003906 24.84375 -4.265625 C 23.226562 -2.523438 21.554688 -1.046875 19.828125 0.171875 C 18.222656 0.703125 16.742188 0.847656 15.390625 0.609375 C 14.035156 0.378906 12.890625 -0.125 11.953125 -0.90625 C 11.015625 -1.695312 10.363281 -2.65625 10 -3.78125 C 9.632812 -4.90625 9.640625 -6.101562 10.015625 -7.375 C 10.398438 -8.644531 11.222656 -9.878906 12.484375 -11.078125 C 13.328125 -11.835938 13.976562 -12.4375 14.4375 -12.875 C 14.90625 -13.3125 15.328125 -13.753906 15.703125 -14.203125 C 16.085938 -14.660156 16.546875 -15.269531 17.078125 -16.03125 Z M 20.671875 -28.859375 C 20.671875 -29.960938 20.398438 -30.828125 19.859375 -31.453125 C 19.316406 -32.078125 18.550781 -32.390625 17.5625 -32.390625 C 16.5625 -32.390625 15.757812 -32.078125 15.15625 -31.453125 C 14.5625 -30.828125 14.265625 -30.019531 14.265625 -29.03125 C 14.265625 -27.945312 14.554688 -27.066406 15.140625 -26.390625 C 15.734375 -25.722656 16.476562 -25.390625 17.375 -25.390625 C 18.34375 -25.359375 19.132812 -25.671875 19.75 -26.328125 C 20.363281 -26.984375 20.671875 -27.828125 20.671875 -28.859375 Z M 20.671875 -28.859375 "/></g></g></g><g fill="#e6e6e6" fill-opacity="1"><g transform="translate(191.669291, 200.746496)"><g><path d="M 27.96875 -21.0625 C 28.03125 -21.207031 28.082031 -21.351562 28.125 -21.5 C 28.164062 -21.644531 28.203125 -21.773438 28.234375 -21.890625 C 28.910156 -24.804688 29.585938 -27.707031 30.265625 -30.59375 C 30.953125 -33.488281 31.632812 -36.394531 32.3125 -39.3125 C 32.425781 -39.71875 32.5625 -40.132812 32.71875 -40.5625 C 32.882812 -40.988281 33.023438 -41.421875 33.140625 -41.859375 C 34.890625 -42.992188 36.710938 -43.65625 38.609375 -43.84375 C 40.503906 -44.03125 42.300781 -43.78125 44 -43.09375 C 45.695312 -42.414062 47.117188 -41.347656 48.265625 -39.890625 C 49.421875 -38.429688 50.144531 -36.617188 50.4375 -34.453125 C 50.550781 -33.640625 50.6875 -32.539062 50.84375 -31.15625 C 51.007812 -29.769531 51.191406 -28.257812 51.390625 -26.625 C 51.597656 -24.988281 51.796875 -23.359375 51.984375 -21.734375 C 52.179688 -20.117188 52.351562 -18.664062 52.5 -17.375 C 52.789062 -14.894531 53.066406 -12.53125 53.328125 -10.28125 C 53.585938 -8.039062 53.863281 -5.679688 54.15625 -3.203125 C 53.195312 -1.972656 52.101562 -1.050781 50.875 -0.4375 C 49.644531 0.175781 48.390625 0.503906 47.109375 0.546875 C 45.828125 0.585938 44.613281 0.367188 43.46875 -0.109375 C 42.332031 -0.585938 41.382812 -1.304688 40.625 -2.265625 C 39.863281 -3.234375 39.410156 -4.421875 39.265625 -5.828125 C 39.117188 -7.140625 39.023438 -8.28125 38.984375 -9.25 C 38.941406 -10.226562 38.910156 -11.191406 38.890625 -12.140625 C 38.878906 -13.097656 38.863281 -14.160156 38.84375 -15.328125 C 38.832031 -16.492188 38.800781 -17.90625 38.75 -19.5625 C 38.6875 -19.59375 38.582031 -19.609375 38.4375 -19.609375 C 38.351562 -19.140625 38.265625 -18.6875 38.171875 -18.25 C 38.085938 -17.8125 37.988281 -17.363281 37.875 -16.90625 C 37.289062 -14.363281 36.695312 -11.8125 36.09375 -9.25 C 35.5 -6.695312 34.878906 -4.15625 34.234375 -1.625 C 33.648438 -1.269531 32.863281 -0.953125 31.875 -0.671875 C 30.882812 -0.398438 29.800781 -0.25 28.625 -0.21875 C 27.457031 -0.1875 26.3125 -0.320312 25.1875 -0.625 C 24.070312 -0.9375 23.078125 -1.5 22.203125 -2.3125 C 21.328125 -3.132812 20.710938 -4.257812 20.359375 -5.6875 C 20.097656 -6.738281 19.789062 -8 19.4375 -9.46875 C 19.082031 -10.945312 18.738281 -12.421875 18.40625 -13.890625 C 18.070312 -15.367188 17.765625 -16.671875 17.484375 -17.796875 C 17.210938 -18.921875 17.003906 -19.671875 16.859375 -20.046875 C 16.710938 -17.828125 16.566406 -15.71875 16.421875 -13.71875 C 16.273438 -11.71875 16.132812 -9.710938 16 -7.703125 C 15.875 -5.691406 15.738281 -3.546875 15.59375 -1.265625 C 14.15625 -0.503906 12.707031 0.0078125 11.25 0.28125 C 9.789062 0.5625 8.40625 0.546875 7.09375 0.234375 C 5.78125 -0.0664062 4.65625 -0.691406 3.71875 -1.640625 C 2.789062 -2.585938 2.128906 -3.90625 1.734375 -5.59375 C 1.335938 -7.289062 1.3125 -9.378906 1.65625 -11.859375 C 2.007812 -14.460938 2.46875 -17.097656 3.03125 -19.765625 C 3.601562 -22.429688 4.097656 -25.050781 4.515625 -27.625 C 4.921875 -30.050781 5.34375 -32.472656 5.78125 -34.890625 C 6.21875 -37.316406 6.640625 -39.726562 7.046875 -42.125 C 7.722656 -42.757812 8.648438 -43.273438 9.828125 -43.671875 C 11.015625 -44.066406 12.304688 -44.269531 13.703125 -44.28125 C 15.109375 -44.300781 16.503906 -44.078125 17.890625 -43.609375 C 19.273438 -43.140625 20.503906 -42.363281 21.578125 -41.28125 C 22.660156 -40.207031 23.453125 -38.765625 23.953125 -36.953125 C 24.242188 -35.960938 24.546875 -34.769531 24.859375 -33.375 C 25.179688 -31.988281 25.519531 -30.554688 25.875 -29.078125 C 26.226562 -27.609375 26.5625 -26.191406 26.875 -24.828125 C 26.90625 -24.765625 26.957031 -24.550781 27.03125 -24.1875 C 27.101562 -23.820312 27.195312 -23.40625 27.3125 -22.9375 C 27.4375 -22.46875 27.535156 -22.050781 27.609375 -21.6875 C 27.679688 -21.320312 27.726562 -21.113281 27.75 -21.0625 C 27.8125 -21.0625 27.859375 -21.0625 27.890625 -21.0625 C 27.921875 -21.0625 27.945312 -21.0625 27.96875 -21.0625 Z M 27.96875 -21.0625 "/></g></g></g><g fill="#e6e6e6" fill-opacity="1"><g transform="translate(245.432269, 200.746496)"><g><path d="M 31.953125 -24.65625 C 34.171875 -23.28125 35.8125 -21.6875 36.875 -19.875 C 37.945312 -18.0625 38.523438 -16.175781 38.609375 -14.21875 C 38.703125 -12.269531 38.410156 -10.390625 37.734375 -8.578125 C 37.066406 -6.765625 36.097656 -5.164062 34.828125 -3.78125 C 33.554688 -2.394531 32.101562 -1.367188 30.46875 -0.703125 C 29.300781 -0.234375 27.867188 0.160156 26.171875 0.484375 C 24.484375 0.804688 22.644531 1.003906 20.65625 1.078125 C 18.675781 1.148438 16.640625 1.046875 14.546875 0.765625 C 12.460938 0.484375 10.453125 -0.0195312 8.515625 -0.75 C 6.578125 -1.476562 4.816406 -2.484375 3.234375 -3.765625 C 2.390625 -4.847656 1.882812 -6.015625 1.71875 -7.265625 C 1.5625 -8.523438 1.6875 -9.726562 2.09375 -10.875 C 2.507812 -12.03125 3.144531 -13.007812 4 -13.8125 C 4.863281 -14.613281 5.894531 -15.109375 7.09375 -15.296875 C 8.289062 -15.492188 9.601562 -15.238281 11.03125 -14.53125 C 13.101562 -13.507812 15.054688 -12.816406 16.890625 -12.453125 C 18.734375 -12.085938 20.265625 -12.039062 21.484375 -12.3125 C 22.710938 -12.59375 23.445312 -13.171875 23.6875 -14.046875 C 23.914062 -14.929688 23.722656 -15.664062 23.109375 -16.25 C 22.503906 -16.832031 21.382812 -17.179688 19.75 -17.296875 C 17.96875 -17.441406 16.1875 -17.742188 14.40625 -18.203125 C 12.625 -18.671875 10.957031 -19.347656 9.40625 -20.234375 C 7.863281 -21.128906 6.554688 -22.300781 5.484375 -23.75 C 4.421875 -25.195312 3.71875 -26.941406 3.375 -28.984375 C 3.257812 -29.710938 3.25 -30.609375 3.34375 -31.671875 C 3.445312 -32.742188 3.707031 -33.875 4.125 -35.0625 C 4.550781 -36.257812 5.195312 -37.441406 6.0625 -38.609375 C 6.925781 -39.773438 8.070312 -40.835938 9.5 -41.796875 C 10.925781 -42.765625 12.691406 -43.53125 14.796875 -44.09375 C 16.253906 -44.5 17.800781 -44.75 19.4375 -44.84375 C 21.070312 -44.945312 22.695312 -44.925781 24.3125 -44.78125 C 25.9375 -44.632812 27.445312 -44.359375 28.84375 -43.953125 C 30.25 -43.546875 31.421875 -43.035156 32.359375 -42.421875 C 33.867188 -41.398438 34.957031 -40.3125 35.625 -39.15625 C 36.300781 -38.007812 36.628906 -36.875 36.609375 -35.75 C 36.597656 -34.625 36.332031 -33.570312 35.8125 -32.59375 C 35.289062 -31.613281 34.601562 -30.78125 33.75 -30.09375 C 32.90625 -29.414062 31.972656 -28.957031 30.953125 -28.71875 C 30.304688 -29.507812 29.421875 -30.1875 28.296875 -30.75 C 27.179688 -31.320312 25.972656 -31.757812 24.671875 -32.0625 C 23.367188 -32.375 22.132812 -32.519531 20.96875 -32.5 C 19.800781 -32.488281 18.84375 -32.300781 18.09375 -31.9375 C 17.351562 -31.570312 16.96875 -31.007812 16.9375 -30.25 C 16.9375 -29.78125 17.140625 -29.394531 17.546875 -29.09375 C 17.960938 -28.789062 18.722656 -28.5625 19.828125 -28.40625 C 23.046875 -28 25.675781 -27.394531 27.71875 -26.59375 C 29.757812 -25.789062 31.171875 -25.144531 31.953125 -24.65625 Z M 31.953125 -24.65625 "/></g></g></g><g clip-path="url(#cd70ea1fef)"><path fill="#e6e6e6" d="M 184.308594 154.695312 C 184.210938 155.058594 183.839844 155.273438 183.476562 155.179688 C 183.113281 155.082031 182.898438 154.710938 182.992188 154.347656 C 183.074219 154.035156 183.476562 153.449219 184.140625 152.78125 C 185.453125 151.46875 187.792969 149.628906 189.707031 148.632812 C 190.472656 148.238281 191.179688 147.972656 191.742188 147.898438 C 192.269531 147.828125 192.703125 147.917969 193.019531 148.125 C 193.734375 148.585938 194.554688 149.574219 195.15625 151.144531 C 195.988281 153.3125 196.433594 156.660156 195.601562 161.273438 C 195.535156 161.640625 195.179688 161.886719 194.808594 161.820312 C 194.441406 161.753906 194.195312 161.398438 194.261719 161.03125 C 195.035156 156.75 194.65625 153.644531 193.886719 151.632812 C 193.421875 150.417969 192.832031 149.625 192.28125 149.265625 C 192.148438 149.179688 191.957031 149.230469 191.722656 149.285156 C 191.316406 149.378906 190.84375 149.578125 190.335938 149.84375 C 188.535156 150.777344 186.335938 152.507812 185.105469 153.742188 C 184.8125 154.039062 184.574219 154.304688 184.417969 154.519531 C 184.367188 154.59375 184.320312 154.648438 184.308594 154.695312 Z M 184.308594 154.695312 " fill-opacity="1" fill-rule="evenodd"/></g><g clip-path="url(#f8bfd664f3)"><path fill="#e6e6e6" d="M 166.453125 154.199219 C 166.550781 154.5625 166.921875 154.777344 167.285156 154.683594 C 167.648438 154.585938 167.867188 154.214844 167.769531 153.851562 C 167.6875 153.539062 167.285156 152.953125 166.621094 152.289062 C 165.308594 150.972656 162.972656 149.132812 161.054688 148.136719 C 160.289062 147.742188 159.582031 147.476562 159.019531 147.402344 C 158.492188 147.332031 158.058594 147.421875 157.742188 147.628906 C 157.027344 148.089844 156.207031 149.078125 155.605469 150.648438 C 154.773438 152.820312 154.328125 156.164062 155.160156 160.777344 C 155.226562 161.144531 155.582031 161.390625 155.953125 161.324219 C 156.320312 161.257812 156.566406 160.902344 156.5 160.535156 C 155.726562 156.253906 156.105469 153.148438 156.875 151.136719 C 157.339844 149.921875 157.929688 149.128906 158.480469 148.769531 C 158.613281 148.683594 158.804688 148.734375 159.039062 148.789062 C 159.445312 148.882812 159.917969 149.082031 160.429688 149.347656 C 162.226562 150.28125 164.425781 152.011719 165.65625 153.246094 C 165.949219 153.542969 166.1875 153.808594 166.34375 154.027344 C 166.394531 154.097656 166.441406 154.152344 166.453125 154.199219 Z M 166.453125 154.199219 " fill-opacity="1" fill-rule="evenodd"/></g><path fill="#e6e6e6" d="M 186.292969 155.652344 C 187.746094 154.496094 189.207031 153.460938 190.152344 153.261719 C 190.863281 153.109375 191.386719 153.3125 191.710938 153.832031 C 191.710938 153.835938 191.792969 154.015625 191.871094 154.328125 C 192.085938 155.160156 192.558594 157.347656 192.304688 158.554688 C 192.199219 159.050781 191.972656 159.421875 191.667969 159.632812 C 191.335938 159.867188 190.882812 159.96875 190.269531 159.738281 C 189.859375 159.585938 188.660156 159.109375 187.660156 158.386719 C 186.902344 157.839844 186.277344 157.140625 186.0625 156.367188 C 185.992188 156.101562 186.082031 155.824219 186.292969 155.652344 Z M 190.890625 158.5 C 190.910156 158.464844 190.941406 158.398438 190.953125 158.351562 C 191 158.175781 191.019531 157.960938 191.023438 157.730469 C 191.035156 156.609375 190.675781 155.125 190.53125 154.585938 C 190.464844 154.59375 190.355469 154.609375 190.273438 154.636719 C 189.988281 154.734375 189.660156 154.910156 189.304688 155.132812 C 188.761719 155.46875 188.160156 155.914062 187.550781 156.394531 C 187.761719 156.730469 188.097656 157.023438 188.457031 157.285156 C 189.332031 157.917969 190.386719 158.332031 190.742188 158.464844 C 190.789062 158.480469 190.855469 158.492188 190.890625 158.5 Z M 190.890625 158.5 " fill-opacity="1" fill-rule="evenodd"/><path fill="#e6e6e6" d="M 164.46875 155.15625 C 163.015625 154 161.554688 152.964844 160.609375 152.765625 C 159.898438 152.613281 159.375 152.816406 159.050781 153.335938 C 159.050781 153.339844 158.96875 153.519531 158.890625 153.832031 C 158.675781 154.664062 158.203125 156.851562 158.457031 158.058594 C 158.5625 158.554688 158.789062 158.925781 159.09375 159.136719 C 159.425781 159.371094 159.878906 159.472656 160.492188 159.242188 C 160.902344 159.089844 162.101562 158.613281 163.101562 157.890625 C 163.859375 157.34375 164.484375 156.644531 164.699219 155.871094 C 164.769531 155.605469 164.679688 155.328125 164.46875 155.15625 Z M 159.871094 158.003906 C 159.851562 157.96875 159.820312 157.902344 159.808594 157.855469 C 159.761719 157.679688 159.742188 157.464844 159.738281 157.234375 C 159.726562 156.113281 160.085938 154.628906 160.230469 154.089844 C 160.296875 154.097656 160.40625 154.113281 160.488281 154.140625 C 160.773438 154.238281 161.101562 154.414062 161.457031 154.636719 C 162 154.976562 162.601562 155.421875 163.210938 155.898438 C 163 156.234375 162.664062 156.527344 162.304688 156.789062 C 161.429688 157.421875 160.375 157.835938 160.019531 157.96875 C 159.972656 157.984375 159.90625 157.996094 159.871094 158.003906 Z M 159.871094 158.003906 " fill-opacity="1" fill-rule="evenodd"/><path fill="#e6e6e6" d="M 188.167969 155.726562 C 188.183594 155.777344 188.230469 155.953125 188.3125 156.292969 C 188.476562 156.960938 188.535156 157.003906 188.542969 157.019531 C 188.699219 157.363281 188.550781 157.765625 188.207031 157.921875 C 187.898438 158.0625 187.539062 157.953125 187.359375 157.679688 C 187.335938 157.652344 187.191406 157.445312 186.992188 156.613281 C 186.832031 155.953125 186.824219 155.960938 186.820312 155.902344 C 186.785156 155.527344 187.0625 155.199219 187.4375 155.164062 C 187.792969 155.132812 188.109375 155.378906 188.167969 155.726562 Z M 188.167969 155.726562 " fill-opacity="1" fill-rule="evenodd"/><path fill="#e6e6e6" d="M 162.59375 155.230469 C 162.578125 155.28125 162.53125 155.457031 162.449219 155.796875 C 162.285156 156.464844 162.226562 156.507812 162.21875 156.523438 C 162.0625 156.867188 162.210938 157.269531 162.554688 157.425781 C 162.863281 157.566406 163.222656 157.457031 163.402344 157.183594 C 163.425781 157.15625 163.570312 156.949219 163.769531 156.117188 C 163.929688 155.457031 163.9375 155.464844 163.941406 155.40625 C 163.976562 155.03125 163.699219 154.703125 163.324219 154.667969 C 162.96875 154.636719 162.652344 154.882812 162.59375 155.230469 Z M 162.59375 155.230469 " fill-opacity="1" fill-rule="evenodd"/><path fill="#e6e6e6" d="M 189.714844 157.476562 C 189.910156 157.722656 189.910156 158.082031 189.699219 158.332031 C 189.457031 158.621094 189.027344 158.65625 188.738281 158.414062 L 188.574219 158.21875 C 188.535156 158.15625 188.476562 158.054688 188.414062 157.914062 C 188.140625 157.308594 187.640625 155.898438 187.554688 155.382812 C 187.492188 155.011719 187.742188 154.660156 188.109375 154.597656 C 188.480469 154.535156 188.832031 154.78125 188.894531 155.152344 C 188.976562 155.636719 189.667969 157.355469 189.714844 157.476562 Z M 189.714844 157.476562 " fill-opacity="1" fill-rule="evenodd"/><path fill="#e6e6e6" d="M 161.046875 156.980469 C 160.851562 157.226562 160.851562 157.585938 161.0625 157.835938 C 161.304688 158.125 161.734375 158.160156 162.023438 157.917969 L 162.1875 157.722656 C 162.230469 157.660156 162.285156 157.558594 162.347656 157.417969 C 162.621094 156.8125 163.121094 155.402344 163.207031 154.886719 C 163.269531 154.515625 163.023438 154.164062 162.652344 154.101562 C 162.28125 154.039062 161.929688 154.289062 161.867188 154.65625 C 161.785156 155.140625 161.09375 156.859375 161.046875 156.980469 Z M 161.046875 156.980469 " fill-opacity="1" fill-rule="evenodd"/><path fill="#e6e6e6" d="M 189.90625 154.703125 C 189.910156 154.714844 189.910156 154.730469 189.914062 154.742188 C 189.988281 155.183594 190.324219 156.703125 190.667969 157.738281 C 190.777344 158.070312 190.859375 158.347656 190.960938 158.453125 C 191.21875 158.726562 191.207031 159.15625 190.933594 159.414062 C 190.660156 159.671875 190.226562 159.660156 189.96875 159.386719 C 189.828125 159.234375 189.648438 158.914062 189.484375 158.480469 C 189.199219 157.710938 188.902344 156.527344 188.722656 155.722656 C 188.617188 155.242188 188.554688 154.886719 188.546875 154.796875 L 188.566406 154.5625 C 188.660156 154.199219 189.03125 153.976562 189.394531 154.070312 C 189.691406 154.144531 189.894531 154.410156 189.90625 154.703125 Z M 189.90625 154.703125 " fill-opacity="1" fill-rule="evenodd"/><path fill="#e6e6e6" d="M 160.855469 154.207031 C 160.851562 154.21875 160.851562 154.234375 160.847656 154.246094 C 160.773438 154.6875 160.4375 156.210938 160.09375 157.242188 C 159.984375 157.574219 159.902344 157.851562 159.800781 157.957031 C 159.542969 158.230469 159.554688 158.660156 159.828125 158.917969 C 160.101562 159.175781 160.535156 159.164062 160.792969 158.890625 C 160.933594 158.738281 161.113281 158.417969 161.277344 157.984375 C 161.5625 157.214844 161.859375 156.03125 162.039062 155.226562 C 162.144531 154.75 162.207031 154.390625 162.214844 154.304688 L 162.195312 154.066406 C 162.101562 153.703125 161.730469 153.480469 161.367188 153.574219 C 161.070312 153.648438 160.867188 153.914062 160.855469 154.207031 Z M 160.855469 154.207031 " fill-opacity="1" fill-rule="evenodd"/><path fill="#e6e6e6" d="M 189.3125 154.664062 C 189.179688 154.347656 189.300781 153.976562 189.609375 153.804688 C 189.9375 153.621094 190.351562 153.738281 190.535156 154.066406 C 190.589844 154.167969 191.109375 156.121094 191.15625 156.300781 C 191.5625 157.898438 191.8125 158.355469 191.8125 158.820312 C 191.8125 159.195312 191.503906 159.5 191.128906 159.5 C 190.753906 159.5 190.449219 159.195312 190.449219 158.820312 C 190.449219 158.660156 190.390625 158.503906 190.308594 158.25 C 190.195312 157.894531 190.03125 157.402344 189.835938 156.636719 C 189.796875 156.488281 189.429688 155.035156 189.316406 154.679688 C 189.316406 154.671875 189.3125 154.667969 189.3125 154.664062 Z M 189.3125 154.664062 " fill-opacity="1" fill-rule="evenodd"/><path fill="#e6e6e6" d="M 161.449219 154.167969 C 161.582031 153.851562 161.460938 153.480469 161.152344 153.308594 C 160.824219 153.125 160.410156 153.242188 160.226562 153.570312 C 160.171875 153.675781 159.652344 155.625 159.605469 155.804688 C 159.199219 157.402344 158.949219 157.859375 158.949219 158.324219 C 158.949219 158.699219 159.257812 159.003906 159.632812 159.003906 C 160.007812 159.003906 160.3125 158.699219 160.3125 158.324219 C 160.3125 158.164062 160.371094 158.007812 160.453125 157.753906 C 160.566406 157.398438 160.730469 156.90625 160.925781 156.140625 C 160.964844 155.992188 161.332031 154.539062 161.445312 154.183594 C 161.445312 154.175781 161.449219 154.171875 161.449219 154.167969 Z M 161.449219 154.167969 " fill-opacity="1" fill-rule="evenodd"/><g fill="#e6e6e6" fill-opacity="1"><g transform="translate(95.938394, 214.070012)"><g><path d="M 4.46875 -7.296875 C 4.269531 -7.148438 4.0625 -7.046875 3.84375 -6.984375 C 3.632812 -6.929688 3.425781 -6.90625 3.21875 -6.90625 C 3 -6.90625 2.785156 -6.929688 2.578125 -6.984375 C 2.367188 -7.046875 2.160156 -7.148438 1.953125 -7.296875 L 1.953125 -7.984375 C 2.179688 -7.835938 2.390625 -7.734375 2.578125 -7.671875 C 2.773438 -7.617188 2.988281 -7.59375 3.21875 -7.59375 C 3.4375 -7.59375 3.644531 -7.617188 3.84375 -7.671875 C 4.039062 -7.734375 4.25 -7.835938 4.46875 -7.984375 Z M 3.640625 -6.296875 L 6.375 0 L 5.578125 0 L 4.921875 -1.515625 L 1.53125 -1.515625 L 0.875 0 L 0.0625 0 L 2.8125 -6.296875 Z M 1.828125 -2.21875 L 4.625 -2.21875 L 3.328125 -5.28125 C 3.304688 -5.320312 3.285156 -5.363281 3.265625 -5.40625 C 3.253906 -5.445312 3.238281 -5.488281 3.21875 -5.53125 C 3.195312 -5.488281 3.179688 -5.445312 3.171875 -5.40625 C 3.160156 -5.363281 3.144531 -5.320312 3.125 -5.28125 Z M 1.828125 -2.21875 "/></g></g></g><g fill="#e6e6e6" fill-opacity="1"><g transform="translate(102.08545, 214.070012)"><g><path d="M 0.828125 0 L 0.828125 -6.296875 L 1.53125 -6.296875 L 5.3125 -1.265625 L 5.3125 -6.296875 L 6.078125 -6.296875 L 6.078125 0 L 5.375 0 L 1.578125 -5.046875 L 1.578125 0 Z M 0.828125 0 "/></g></g></g><g fill="#e6e6e6" fill-opacity="1"><g transform="translate(108.682511, 214.070012)"><g/></g></g><g fill="#e6e6e6" fill-opacity="1"><g transform="translate(110.617535, 214.070012)"><g><path d="M 0.828125 0 L 0.828125 -6.296875 L 3.296875 -6.296875 C 3.578125 -6.296875 3.851562 -6.265625 4.125 -6.203125 C 4.40625 -6.140625 4.660156 -6.035156 4.890625 -5.890625 C 5.117188 -5.742188 5.300781 -5.546875 5.4375 -5.296875 C 5.582031 -5.054688 5.65625 -4.753906 5.65625 -4.390625 C 5.65625 -4.003906 5.578125 -3.679688 5.421875 -3.421875 C 5.265625 -3.171875 5.054688 -2.972656 4.796875 -2.828125 C 4.546875 -2.691406 4.269531 -2.597656 3.96875 -2.546875 L 6.109375 0 L 5.15625 0 L 3.09375 -2.484375 L 1.578125 -2.484375 L 1.578125 0 Z M 1.578125 -3.203125 L 3.328125 -3.203125 C 3.578125 -3.203125 3.820312 -3.234375 4.0625 -3.296875 C 4.300781 -3.367188 4.5 -3.488281 4.65625 -3.65625 C 4.8125 -3.832031 4.890625 -4.078125 4.890625 -4.390625 C 4.890625 -4.710938 4.8125 -4.957031 4.65625 -5.125 C 4.5 -5.289062 4.300781 -5.40625 4.0625 -5.46875 C 3.820312 -5.539062 3.578125 -5.578125 3.328125 -5.578125 L 1.578125 -5.578125 Z M 1.578125 -3.203125 "/></g></g></g><g fill="#e6e6e6" fill-opacity="1"><g transform="translate(116.566586, 214.070012)"><g><path d="M 2.21875 -6.9375 L 3.40625 -8.25 L 4.046875 -8.25 L 5.234375 -6.9375 L 4.421875 -6.9375 L 3.71875 -7.71875 L 3.03125 -6.9375 Z M 3.703125 0.109375 C 3.148438 0.109375 2.664062 0.0195312 2.25 -0.15625 C 1.84375 -0.34375 1.5 -0.59375 1.21875 -0.90625 C 0.945312 -1.21875 0.742188 -1.566406 0.609375 -1.953125 C 0.472656 -2.335938 0.40625 -2.738281 0.40625 -3.15625 C 0.40625 -3.5625 0.472656 -3.957031 0.609375 -4.34375 C 0.742188 -4.726562 0.945312 -5.078125 1.21875 -5.390625 C 1.5 -5.703125 1.84375 -5.945312 2.25 -6.125 C 2.664062 -6.3125 3.148438 -6.40625 3.703125 -6.40625 C 4.253906 -6.40625 4.734375 -6.3125 5.140625 -6.125 C 5.554688 -5.945312 5.898438 -5.703125 6.171875 -5.390625 C 6.453125 -5.078125 6.660156 -4.726562 6.796875 -4.34375 C 6.929688 -3.957031 7 -3.5625 7 -3.15625 C 7 -2.738281 6.929688 -2.335938 6.796875 -1.953125 C 6.660156 -1.566406 6.453125 -1.21875 6.171875 -0.90625 C 5.898438 -0.59375 5.554688 -0.34375 5.140625 -0.15625 C 4.734375 0.0195312 4.253906 0.109375 3.703125 0.109375 Z M 3.703125 -0.609375 C 4.128906 -0.609375 4.5 -0.675781 4.8125 -0.8125 C 5.132812 -0.957031 5.398438 -1.148438 5.609375 -1.390625 C 5.816406 -1.628906 5.972656 -1.898438 6.078125 -2.203125 C 6.179688 -2.503906 6.234375 -2.820312 6.234375 -3.15625 C 6.234375 -3.476562 6.179688 -3.789062 6.078125 -4.09375 C 5.972656 -4.394531 5.816406 -4.664062 5.609375 -4.90625 C 5.398438 -5.144531 5.132812 -5.332031 4.8125 -5.46875 C 4.5 -5.613281 4.128906 -5.6875 3.703125 -5.6875 C 3.273438 -5.6875 2.898438 -5.613281 2.578125 -5.46875 C 2.265625 -5.332031 2 -5.144531 1.78125 -4.90625 C 1.570312 -4.664062 1.414062 -4.394531 1.3125 -4.09375 C 1.21875 -3.789062 1.171875 -3.476562 1.171875 -3.15625 C 1.171875 -2.820312 1.21875 -2.503906 1.3125 -2.203125 C 1.414062 -1.898438 1.570312 -1.628906 1.78125 -1.390625 C 2 -1.148438 2.265625 -0.957031 2.578125 -0.8125 C 2.898438 -0.675781 3.273438 -0.609375 3.703125 -0.609375 Z M 3.703125 -0.609375 "/></g></g></g><g fill="#e6e6e6" fill-opacity="1"><g transform="translate(123.712585, 212.117009)"><g><path d="M -3.609375 -6.9375 L -4.546875 -8.25 L -3.640625 -8.25 L -2.828125 -6.9375 Z M -3.609375 -6.9375 "/></g></g></g><g fill="#e6e6e6" fill-opacity="1"><g transform="translate(123.658649, 214.070012)"><g><path d="M 0.828125 0 L 0.828125 -6.296875 L 1.578125 -6.296875 L 1.578125 0 Z M 0.828125 0 "/></g></g></g><g fill="#e6e6e6" fill-opacity="1"><g transform="translate(125.764671, 214.070012)"><g/></g></g><g fill="#e6e6e6" fill-opacity="1"><g transform="translate(127.699695, 214.070012)"><g><path d="M 0.828125 0 L 0.828125 -6.296875 L 3.40625 -6.296875 C 4.050781 -6.296875 4.566406 -6.164062 4.953125 -5.90625 C 5.347656 -5.644531 5.546875 -5.242188 5.546875 -4.703125 C 5.546875 -4.441406 5.492188 -4.210938 5.390625 -4.015625 C 5.296875 -3.828125 5.171875 -3.675781 5.015625 -3.5625 C 4.867188 -3.445312 4.710938 -3.363281 4.546875 -3.3125 C 4.722656 -3.257812 4.90625 -3.175781 5.09375 -3.0625 C 5.289062 -2.945312 5.457031 -2.78125 5.59375 -2.5625 C 5.738281 -2.34375 5.8125 -2.066406 5.8125 -1.734375 C 5.8125 -1.367188 5.734375 -1.070312 5.578125 -0.84375 C 5.421875 -0.625 5.222656 -0.453125 4.984375 -0.328125 C 4.742188 -0.203125 4.488281 -0.113281 4.21875 -0.0625 C 3.957031 -0.0195312 3.710938 0 3.484375 0 Z M 1.578125 -3.625 L 3.5625 -3.625 C 3.78125 -3.625 3.984375 -3.65625 4.171875 -3.71875 C 4.359375 -3.78125 4.503906 -3.878906 4.609375 -4.015625 C 4.722656 -4.160156 4.78125 -4.351562 4.78125 -4.59375 C 4.78125 -4.96875 4.648438 -5.222656 4.390625 -5.359375 C 4.140625 -5.503906 3.789062 -5.578125 3.34375 -5.578125 L 1.578125 -5.578125 Z M 1.578125 -0.71875 L 3.328125 -0.71875 C 3.523438 -0.71875 3.722656 -0.726562 3.921875 -0.75 C 4.128906 -0.769531 4.316406 -0.8125 4.484375 -0.875 C 4.648438 -0.945312 4.785156 -1.054688 4.890625 -1.203125 C 4.992188 -1.347656 5.046875 -1.550781 5.046875 -1.8125 C 5.046875 -2.050781 4.992188 -2.242188 4.890625 -2.390625 C 4.796875 -2.535156 4.671875 -2.644531 4.515625 -2.71875 C 4.359375 -2.789062 4.191406 -2.835938 4.015625 -2.859375 C 3.847656 -2.878906 3.6875 -2.890625 3.53125 -2.890625 L 1.578125 -2.890625 Z M 1.578125 -0.71875 "/></g></g></g><g fill="#e6e6e6" fill-opacity="1"><g transform="translate(133.612742, 214.070012)"><g><path d="M 4.34375 -8.25 L 3.40625 -6.9375 L 2.625 -6.9375 L 3.4375 -8.25 Z M 3.640625 -6.296875 L 6.375 0 L 5.578125 0 L 4.921875 -1.515625 L 1.53125 -1.515625 L 0.875 0 L 0.0625 0 L 2.8125 -6.296875 Z M 1.828125 -2.21875 L 4.625 -2.21875 L 3.328125 -5.28125 C 3.304688 -5.320312 3.285156 -5.363281 3.265625 -5.40625 C 3.253906 -5.445312 3.238281 -5.488281 3.21875 -5.53125 C 3.195312 -5.488281 3.179688 -5.445312 3.171875 -5.40625 C 3.160156 -5.363281 3.144531 -5.320312 3.125 -5.28125 Z M 1.828125 -2.21875 "/></g></g></g><g fill="#e6e6e6" fill-opacity="1"><g transform="translate(139.759799, 214.070012)"><g><path d="M 3.703125 0.109375 C 3.148438 0.109375 2.664062 0.0195312 2.25 -0.15625 C 1.84375 -0.34375 1.5 -0.59375 1.21875 -0.90625 C 0.945312 -1.21875 0.742188 -1.566406 0.609375 -1.953125 C 0.472656 -2.335938 0.40625 -2.738281 0.40625 -3.15625 C 0.40625 -3.5625 0.472656 -3.957031 0.609375 -4.34375 C 0.742188 -4.726562 0.945312 -5.078125 1.21875 -5.390625 C 1.5 -5.703125 1.84375 -5.945312 2.25 -6.125 C 2.664062 -6.3125 3.148438 -6.40625 3.703125 -6.40625 C 4.253906 -6.40625 4.734375 -6.3125 5.140625 -6.125 C 5.554688 -5.945312 5.898438 -5.703125 6.171875 -5.390625 C 6.453125 -5.078125 6.660156 -4.726562 6.796875 -4.34375 C 6.929688 -3.957031 7 -3.5625 7 -3.15625 C 7 -2.738281 6.929688 -2.335938 6.796875 -1.953125 C 6.660156 -1.566406 6.453125 -1.21875 6.171875 -0.90625 C 5.898438 -0.59375 5.554688 -0.34375 5.140625 -0.15625 C 4.734375 0.0195312 4.253906 0.109375 3.703125 0.109375 Z M 3.703125 -0.609375 C 4.128906 -0.609375 4.5 -0.675781 4.8125 -0.8125 C 5.132812 -0.957031 5.398438 -1.148438 5.609375 -1.390625 C 5.816406 -1.628906 5.972656 -1.898438 6.078125 -2.203125 C 6.179688 -2.503906 6.234375 -2.820312 6.234375 -3.15625 C 6.234375 -3.476562 6.179688 -3.789062 6.078125 -4.09375 C 5.972656 -4.394531 5.816406 -4.664062 5.609375 -4.90625 C 5.398438 -5.144531 5.132812 -5.332031 4.8125 -5.46875 C 4.5 -5.613281 4.128906 -5.6875 3.703125 -5.6875 C 3.273438 -5.6875 2.898438 -5.613281 2.578125 -5.46875 C 2.265625 -5.332031 2 -5.144531 1.78125 -4.90625 C 1.570312 -4.664062 1.414062 -4.394531 1.3125 -4.09375 C 1.21875 -3.789062 1.171875 -3.476562 1.171875 -3.15625 C 1.171875 -2.820312 1.21875 -2.503906 1.3125 -2.203125 C 1.414062 -1.898438 1.570312 -1.628906 1.78125 -1.390625 C 2 -1.148438 2.265625 -0.957031 2.578125 -0.8125 C 2.898438 -0.675781 3.273438 -0.609375 3.703125 -0.609375 Z M 3.703125 -0.609375 "/></g></g></g><g fill="#e6e6e6" fill-opacity="1"><g transform="translate(146.851862, 214.070012)"><g><path d="M 0.1875 1.34375 L 0.6875 -0.71875 L 1.453125 -0.71875 L 0.78125 1.34375 Z M 0.1875 1.34375 "/></g></g></g><g fill="#e6e6e6" fill-opacity="1"><g transform="translate(148.561884, 214.070012)"><g/></g></g><g fill="#e6e6e6" fill-opacity="1"><g transform="translate(150.496908, 214.070012)"><g><path d="M 2.34375 0 L 2.34375 -5.578125 L 0.125 -5.578125 L 0.125 -6.296875 L 5.3125 -6.296875 L 5.3125 -5.578125 L 3.09375 -5.578125 L 3.09375 0 Z M 2.34375 0 "/></g></g></g><g fill="#e6e6e6" fill-opacity="1"><g transform="translate(155.626951, 214.070012)"><g><path d="M 0.828125 0 L 0.828125 -6.296875 L 1.578125 -6.296875 L 1.578125 -3.515625 L 5.3125 -3.515625 L 5.3125 -6.296875 L 6.078125 -6.296875 L 6.078125 0 L 5.3125 0 L 5.3125 -2.796875 L 1.578125 -2.796875 L 1.578125 0 Z M 0.828125 0 "/></g></g></g><g fill="#e6e6e6" fill-opacity="1"><g transform="translate(162.224011, 214.070012)"><g><path d="M 0.828125 0 L 0.828125 -6.296875 L 1.578125 -6.296875 L 1.578125 0 Z M 0.828125 0 "/></g></g></g><g fill="#e6e6e6" fill-opacity="1"><g transform="translate(164.330033, 214.070012)"><g><path d="M 1.515625 -6.9375 L 2.703125 -8.25 L 3.359375 -8.25 L 4.546875 -6.9375 L 3.71875 -6.9375 L 3.03125 -7.71875 L 2.34375 -6.9375 Z M 0.828125 0 L 0.828125 -6.296875 L 5.078125 -6.296875 L 5.078125 -5.578125 L 1.578125 -5.578125 L 1.578125 -3.53125 L 4.8125 -3.53125 L 4.8125 -2.8125 L 1.578125 -2.8125 L 1.578125 -0.71875 L 5.125 -0.71875 L 5.125 0 Z M 0.828125 0 "/></g></g></g><g fill="#e6e6e6" fill-opacity="1"><g transform="translate(170.774029, 212.117009)"><g><path d="M -4 -6.9375 L -3.1875 -8.25 L -2.28125 -8.25 L -3.21875 -6.9375 Z M -4 -6.9375 "/></g></g></g><g fill="#e6e6e6" fill-opacity="1"><g transform="translate(169.604077, 214.070012)"><g><path d="M 2.34375 0 L 2.34375 -5.578125 L 0.125 -5.578125 L 0.125 -6.296875 L 5.3125 -6.296875 L 5.3125 -5.578125 L 3.09375 -5.578125 L 3.09375 0 Z M 2.34375 0 "/></g></g></g><g fill="#e6e6e6" fill-opacity="1"><g transform="translate(174.73412, 214.070012)"><g/></g></g><g fill="#e6e6e6" fill-opacity="1"><g transform="translate(176.669144, 214.070012)"><g><path d="M 0.828125 0 L 0.828125 -6.296875 L 1.578125 -6.296875 L 1.578125 -3.5625 L 2.65625 -3.5625 L 4.90625 -6.296875 L 5.78125 -6.296875 L 3.296875 -3.265625 L 5.96875 0 L 5.109375 0 L 2.6875 -2.859375 L 1.578125 -2.859375 L 1.578125 0 Z M 0.828125 0 "/></g></g></g><g fill="#e6e6e6" fill-opacity="1"><g transform="translate(182.348194, 214.070012)"><g><path d="M 1.515625 -6.9375 L 2.703125 -8.25 L 3.359375 -8.25 L 4.546875 -6.9375 L 3.71875 -6.9375 L 3.03125 -7.71875 L 2.34375 -6.9375 Z M 0.828125 0 L 0.828125 -6.296875 L 5.078125 -6.296875 L 5.078125 -5.578125 L 1.578125 -5.578125 L 1.578125 -3.53125 L 4.8125 -3.53125 L 4.8125 -2.8125 L 1.578125 -2.8125 L 1.578125 -0.71875 L 5.125 -0.71875 L 5.125 0 Z M 0.828125 0 "/></g></g></g><g fill="#e6e6e6" fill-opacity="1"><g transform="translate(188.79219, 212.117009)"><g><path d="M -4 -6.9375 L -3.1875 -8.25 L -2.28125 -8.25 L -3.21875 -6.9375 Z M -4 -6.9375 "/></g></g></g><g fill="#e6e6e6" fill-opacity="1"><g transform="translate(187.622237, 214.070012)"><g/></g></g><g fill="#e6e6e6" fill-opacity="1"><g transform="translate(189.557261, 214.070012)"><g><path d="M 0.828125 0 L 0.828125 -6.296875 L 1.53125 -6.296875 L 5.3125 -1.265625 L 5.3125 -6.296875 L 6.078125 -6.296875 L 6.078125 0 L 5.375 0 L 1.578125 -5.046875 L 1.578125 0 Z M 0.828125 0 "/></g></g></g><g fill="#e6e6e6" fill-opacity="1"><g transform="translate(196.154322, 214.070012)"><g><path d="M 2.359375 -6.90625 L 1.734375 -6.90625 C 1.691406 -7.226562 1.75 -7.46875 1.90625 -7.625 C 2.0625 -7.789062 2.242188 -7.875 2.453125 -7.875 C 2.640625 -7.875 2.816406 -7.84375 2.984375 -7.78125 C 3.148438 -7.71875 3.300781 -7.65625 3.4375 -7.59375 C 3.582031 -7.53125 3.703125 -7.5 3.796875 -7.5 C 3.992188 -7.5 4.082031 -7.609375 4.0625 -7.828125 L 4.703125 -7.828125 C 4.742188 -7.492188 4.679688 -7.25 4.515625 -7.09375 C 4.359375 -6.9375 4.171875 -6.859375 3.953125 -6.859375 C 3.773438 -6.859375 3.597656 -6.890625 3.421875 -6.953125 C 3.253906 -7.023438 3.101562 -7.09375 2.96875 -7.15625 C 2.832031 -7.21875 2.71875 -7.25 2.625 -7.25 C 2.53125 -7.25 2.457031 -7.21875 2.40625 -7.15625 C 2.363281 -7.09375 2.347656 -7.007812 2.359375 -6.90625 Z M 3.640625 -6.296875 L 6.375 0 L 5.578125 0 L 4.921875 -1.515625 L 1.53125 -1.515625 L 0.875 0 L 0.0625 0 L 2.8125 -6.296875 Z M 1.828125 -2.21875 L 4.625 -2.21875 L 3.328125 -5.28125 C 3.304688 -5.320312 3.285156 -5.363281 3.265625 -5.40625 C 3.253906 -5.445312 3.238281 -5.488281 3.21875 -5.53125 C 3.195312 -5.488281 3.179688 -5.445312 3.171875 -5.40625 C 3.160156 -5.363281 3.144531 -5.320312 3.125 -5.28125 Z M 1.828125 -2.21875 "/></g></g></g><g fill="#e6e6e6" fill-opacity="1"><g transform="translate(202.301378, 214.070012)"><g><path d="M 0.828125 0 L 0.828125 -6.296875 L 1.53125 -6.296875 L 5.3125 -1.265625 L 5.3125 -6.296875 L 6.078125 -6.296875 L 6.078125 0 L 5.375 0 L 1.578125 -5.046875 L 1.578125 0 Z M 0.828125 0 "/></g></g></g><g fill="#e6e6e6" fill-opacity="1"><g transform="translate(208.898439, 214.070012)"><g/></g></g><g fill="#e6e6e6" fill-opacity="1"><g transform="translate(210.833463, 214.070012)"><g><path d="M 0.828125 0 L 0.828125 -6.296875 L 3.296875 -6.296875 C 3.578125 -6.296875 3.851562 -6.265625 4.125 -6.203125 C 4.40625 -6.140625 4.660156 -6.035156 4.890625 -5.890625 C 5.117188 -5.742188 5.300781 -5.546875 5.4375 -5.296875 C 5.582031 -5.054688 5.65625 -4.753906 5.65625 -4.390625 C 5.65625 -4.003906 5.578125 -3.679688 5.421875 -3.421875 C 5.265625 -3.171875 5.054688 -2.972656 4.796875 -2.828125 C 4.546875 -2.691406 4.269531 -2.597656 3.96875 -2.546875 L 6.109375 0 L 5.15625 0 L 3.09375 -2.484375 L 1.578125 -2.484375 L 1.578125 0 Z M 1.578125 -3.203125 L 3.328125 -3.203125 C 3.578125 -3.203125 3.820312 -3.234375 4.0625 -3.296875 C 4.300781 -3.367188 4.5 -3.488281 4.65625 -3.65625 C 4.8125 -3.832031 4.890625 -4.078125 4.890625 -4.390625 C 4.890625 -4.710938 4.8125 -4.957031 4.65625 -5.125 C 4.5 -5.289062 4.300781 -5.40625 4.0625 -5.46875 C 3.820312 -5.539062 3.578125 -5.578125 3.328125 -5.578125 L 1.578125 -5.578125 Z M 1.578125 -3.203125 "/></g></g></g><g fill="#e6e6e6" fill-opacity="1"><g transform="translate(216.782514, 214.070012)"><g><path d="M 2.21875 -6.9375 L 3.40625 -8.25 L 4.046875 -8.25 L 5.234375 -6.9375 L 4.421875 -6.9375 L 3.71875 -7.71875 L 3.03125 -6.9375 Z M 3.703125 0.109375 C 3.148438 0.109375 2.664062 0.0195312 2.25 -0.15625 C 1.84375 -0.34375 1.5 -0.59375 1.21875 -0.90625 C 0.945312 -1.21875 0.742188 -1.566406 0.609375 -1.953125 C 0.472656 -2.335938 0.40625 -2.738281 0.40625 -3.15625 C 0.40625 -3.5625 0.472656 -3.957031 0.609375 -4.34375 C 0.742188 -4.726562 0.945312 -5.078125 1.21875 -5.390625 C 1.5 -5.703125 1.84375 -5.945312 2.25 -6.125 C 2.664062 -6.3125 3.148438 -6.40625 3.703125 -6.40625 C 4.253906 -6.40625 4.734375 -6.3125 5.140625 -6.125 C 5.554688 -5.945312 5.898438 -5.703125 6.171875 -5.390625 C 6.453125 -5.078125 6.660156 -4.726562 6.796875 -4.34375 C 6.929688 -3.957031 7 -3.5625 7 -3.15625 C 7 -2.738281 6.929688 -2.335938 6.796875 -1.953125 C 6.660156 -1.566406 6.453125 -1.21875 6.171875 -0.90625 C 5.898438 -0.59375 5.554688 -0.34375 5.140625 -0.15625 C 4.734375 0.0195312 4.253906 0.109375 3.703125 0.109375 Z M 3.703125 -0.609375 C 4.128906 -0.609375 4.5 -0.675781 4.8125 -0.8125 C 5.132812 -0.957031 5.398438 -1.148438 5.609375 -1.390625 C 5.816406 -1.628906 5.972656 -1.898438 6.078125 -2.203125 C 6.179688 -2.503906 6.234375 -2.820312 6.234375 -3.15625 C 6.234375 -3.476562 6.179688 -3.789062 6.078125 -4.09375 C 5.972656 -4.394531 5.816406 -4.664062 5.609375 -4.90625 C 5.398438 -5.144531 5.132812 -5.332031 4.8125 -5.46875 C 4.5 -5.613281 4.128906 -5.6875 3.703125 -5.6875 C 3.273438 -5.6875 2.898438 -5.613281 2.578125 -5.46875 C 2.265625 -5.332031 2 -5.144531 1.78125 -4.90625 C 1.570312 -4.664062 1.414062 -4.394531 1.3125 -4.09375 C 1.21875 -3.789062 1.171875 -3.476562 1.171875 -3.15625 C 1.171875 -2.820312 1.21875 -2.503906 1.3125 -2.203125 C 1.414062 -1.898438 1.570312 -1.628906 1.78125 -1.390625 C 2 -1.148438 2.265625 -0.957031 2.578125 -0.8125 C 2.898438 -0.675781 3.273438 -0.609375 3.703125 -0.609375 Z M 3.703125 -0.609375 "/></g></g></g><g fill="#e6e6e6" fill-opacity="1"><g transform="translate(223.928513, 212.117009)"><g><path d="M -3.609375 -6.9375 L -4.546875 -8.25 L -3.640625 -8.25 L -2.828125 -6.9375 Z M -3.609375 -6.9375 "/></g></g></g><g fill="#e6e6e6" fill-opacity="1"><g transform="translate(223.874577, 214.070012)"><g><path d="M 0.828125 0 L 0.828125 -6.296875 L 1.578125 -6.296875 L 1.578125 0 Z M 0.828125 0 "/></g></g></g><g fill="#e6e6e6" fill-opacity="1"><g transform="translate(225.980599, 214.070012)"><g/></g></g><g fill="#e6e6e6" fill-opacity="1"><g transform="translate(227.915623, 214.070012)"><g><path d="M 0.828125 0 L 0.828125 -6.296875 L 3.40625 -6.296875 C 4.050781 -6.296875 4.566406 -6.164062 4.953125 -5.90625 C 5.347656 -5.644531 5.546875 -5.242188 5.546875 -4.703125 C 5.546875 -4.441406 5.492188 -4.210938 5.390625 -4.015625 C 5.296875 -3.828125 5.171875 -3.675781 5.015625 -3.5625 C 4.867188 -3.445312 4.710938 -3.363281 4.546875 -3.3125 C 4.722656 -3.257812 4.90625 -3.175781 5.09375 -3.0625 C 5.289062 -2.945312 5.457031 -2.78125 5.59375 -2.5625 C 5.738281 -2.34375 5.8125 -2.066406 5.8125 -1.734375 C 5.8125 -1.367188 5.734375 -1.070312 5.578125 -0.84375 C 5.421875 -0.625 5.222656 -0.453125 4.984375 -0.328125 C 4.742188 -0.203125 4.488281 -0.113281 4.21875 -0.0625 C 3.957031 -0.0195312 3.710938 0 3.484375 0 Z M 1.578125 -3.625 L 3.5625 -3.625 C 3.78125 -3.625 3.984375 -3.65625 4.171875 -3.71875 C 4.359375 -3.78125 4.503906 -3.878906 4.609375 -4.015625 C 4.722656 -4.160156 4.78125 -4.351562 4.78125 -4.59375 C 4.78125 -4.96875 4.648438 -5.222656 4.390625 -5.359375 C 4.140625 -5.503906 3.789062 -5.578125 3.34375 -5.578125 L 1.578125 -5.578125 Z M 1.578125 -0.71875 L 3.328125 -0.71875 C 3.523438 -0.71875 3.722656 -0.726562 3.921875 -0.75 C 4.128906 -0.769531 4.316406 -0.8125 4.484375 -0.875 C 4.648438 -0.945312 4.785156 -1.054688 4.890625 -1.203125 C 4.992188 -1.347656 5.046875 -1.550781 5.046875 -1.8125 C 5.046875 -2.050781 4.992188 -2.242188 4.890625 -2.390625 C 4.796875 -2.535156 4.671875 -2.644531 4.515625 -2.71875 C 4.359375 -2.789062 4.191406 -2.835938 4.015625 -2.859375 C 3.847656 -2.878906 3.6875 -2.890625 3.53125 -2.890625 L 1.578125 -2.890625 Z M 1.578125 -0.71875 "/></g></g></g><g fill="#e6e6e6" fill-opacity="1"><g transform="translate(233.828668, 214.070012)"><g><path d="M 6.484375 -3.21875 C 6.484375 -2.550781 6.367188 -1.96875 6.140625 -1.46875 C 5.921875 -0.976562 5.585938 -0.59375 5.140625 -0.3125 C 4.703125 -0.0390625 4.160156 0.09375 3.515625 0.09375 C 2.847656 0.09375 2.296875 -0.0390625 1.859375 -0.3125 C 1.421875 -0.59375 1.09375 -0.984375 0.875 -1.484375 C 0.65625 -1.984375 0.546875 -2.566406 0.546875 -3.234375 C 0.546875 -3.890625 0.65625 -4.460938 0.875 -4.953125 C 1.09375 -5.453125 1.421875 -5.835938 1.859375 -6.109375 C 2.296875 -6.390625 2.851562 -6.53125 3.53125 -6.53125 C 4.164062 -6.53125 4.703125 -6.390625 5.140625 -6.109375 C 5.585938 -5.835938 5.921875 -5.453125 6.140625 -4.953125 C 6.367188 -4.460938 6.484375 -3.882812 6.484375 -3.21875 Z M 1.40625 -3.21875 C 1.40625 -2.40625 1.578125 -1.765625 1.921875 -1.296875 C 2.265625 -0.835938 2.796875 -0.609375 3.515625 -0.609375 C 4.242188 -0.609375 4.773438 -0.835938 5.109375 -1.296875 C 5.453125 -1.765625 5.625 -2.40625 5.625 -3.21875 C 5.625 -4.03125 5.453125 -4.664062 5.109375 -5.125 C 4.773438 -5.582031 4.25 -5.8125 3.53125 -5.8125 C 2.800781 -5.8125 2.265625 -5.582031 1.921875 -5.125 C 1.578125 -4.664062 1.40625 -4.03125 1.40625 -3.21875 Z M 4.515625 -8.046875 C 4.515625 -7.828125 4.445312 -7.65625 4.3125 -7.53125 C 4.175781 -7.40625 4.003906 -7.316406 3.796875 -7.265625 L 3.75 -6.796875 L 3.265625 -6.796875 L 3.203125 -7.5625 C 3.410156 -7.59375 3.578125 -7.644531 3.703125 -7.71875 C 3.835938 -7.789062 3.90625 -7.894531 3.90625 -8.03125 C 3.90625 -8.175781 3.847656 -8.269531 3.734375 -8.3125 C 3.628906 -8.363281 3.492188 -8.390625 3.328125 -8.390625 C 3.242188 -8.390625 3.160156 -8.382812 3.078125 -8.375 C 3.003906 -8.363281 2.941406 -8.351562 2.890625 -8.34375 L 2.890625 -8.8125 C 3.003906 -8.851562 3.171875 -8.875 3.390625 -8.875 C 3.742188 -8.875 4.019531 -8.804688 4.21875 -8.671875 C 4.414062 -8.535156 4.515625 -8.328125 4.515625 -8.046875 Z M 4.515625 -8.046875 "/></g></g></g><g fill="#e6e6e6" fill-opacity="1"><g transform="translate(240.551727, 214.070012)"><g><path d="M 0.1875 1.34375 L 0.6875 -0.71875 L 1.453125 -0.71875 L 0.78125 1.34375 Z M 0.1875 1.34375 "/></g></g></g><g fill="#e6e6e6" fill-opacity="1"><g transform="translate(242.261749, 214.070012)"><g/></g></g><g fill="#e6e6e6" fill-opacity="1"><g transform="translate(244.196773, 214.070012)"><g><path d="M 3.703125 0.109375 C 3.304688 0.109375 2.910156 0.0390625 2.515625 -0.09375 C 2.128906 -0.238281 1.773438 -0.441406 1.453125 -0.703125 C 1.140625 -0.972656 0.882812 -1.3125 0.6875 -1.71875 C 0.5 -2.125 0.40625 -2.585938 0.40625 -3.109375 C 0.40625 -3.648438 0.5 -4.128906 0.6875 -4.546875 C 0.875 -4.960938 1.125 -5.304688 1.4375 -5.578125 C 1.757812 -5.859375 2.117188 -6.066406 2.515625 -6.203125 C 2.910156 -6.335938 3.3125 -6.40625 3.71875 -6.40625 C 4.363281 -6.40625 4.953125 -6.265625 5.484375 -5.984375 L 5.484375 -5.234375 C 5.253906 -5.390625 5 -5.503906 4.71875 -5.578125 C 4.4375 -5.648438 4.144531 -5.6875 3.84375 -5.6875 C 3.519531 -5.6875 3.195312 -5.632812 2.875 -5.53125 C 2.5625 -5.425781 2.273438 -5.269531 2.015625 -5.0625 C 1.765625 -4.863281 1.5625 -4.597656 1.40625 -4.265625 C 1.25 -3.941406 1.171875 -3.554688 1.171875 -3.109375 C 1.171875 -2.679688 1.25 -2.3125 1.40625 -2 C 1.5625 -1.6875 1.769531 -1.425781 2.03125 -1.21875 C 2.289062 -1.019531 2.582031 -0.867188 2.90625 -0.765625 C 3.226562 -0.660156 3.550781 -0.609375 3.875 -0.609375 C 4.195312 -0.609375 4.5 -0.644531 4.78125 -0.71875 C 5.070312 -0.800781 5.320312 -0.921875 5.53125 -1.078125 L 5.53125 -0.3125 C 5.269531 -0.175781 4.984375 -0.0703125 4.671875 0 C 4.367188 0.0703125 4.046875 0.109375 3.703125 0.109375 Z M 3.703125 0.109375 "/></g></g></g><g fill="#e6e6e6" fill-opacity="1"><g transform="translate(249.767825, 214.070012)"><g><path d="M 0.828125 0 L 0.828125 -6.296875 L 1.578125 -6.296875 L 1.578125 -3.515625 L 5.3125 -3.515625 L 5.3125 -6.296875 L 6.078125 -6.296875 L 6.078125 0 L 5.3125 0 L 5.3125 -2.796875 L 1.578125 -2.796875 L 1.578125 0 Z M 0.828125 0 "/></g></g></g><g fill="#e6e6e6" fill-opacity="1"><g transform="translate(256.364886, 214.070012)"><g><path d="M 2.765625 -6.9375 L 3.578125 -8.25 L 4.484375 -8.25 L 3.546875 -6.9375 Z M 3.390625 0.109375 C 3.046875 0.109375 2.710938 0.0664062 2.390625 -0.015625 C 2.078125 -0.0976562 1.796875 -0.234375 1.546875 -0.421875 C 1.296875 -0.609375 1.097656 -0.851562 0.953125 -1.15625 C 0.816406 -1.46875 0.75 -1.847656 0.75 -2.296875 L 0.75 -6.296875 L 1.515625 -6.296875 L 1.515625 -2.34375 C 1.515625 -1.914062 1.59375 -1.570312 1.75 -1.3125 C 1.914062 -1.0625 2.140625 -0.878906 2.421875 -0.765625 C 2.710938 -0.660156 3.035156 -0.609375 3.390625 -0.609375 C 3.753906 -0.609375 4.078125 -0.660156 4.359375 -0.765625 C 4.640625 -0.878906 4.859375 -1.0625 5.015625 -1.3125 C 5.179688 -1.570312 5.265625 -1.914062 5.265625 -2.34375 L 5.265625 -6.296875 L 6.015625 -6.296875 L 6.015625 -2.296875 C 6.015625 -1.847656 5.941406 -1.46875 5.796875 -1.15625 C 5.660156 -0.851562 5.46875 -0.609375 5.21875 -0.421875 C 4.976562 -0.234375 4.703125 -0.0976562 4.390625 -0.015625 C 4.078125 0.0664062 3.742188 0.109375 3.390625 0.109375 Z M 3.390625 0.109375 "/></g></g></g><g fill="#e6e6e6" fill-opacity="1"><g transform="translate(262.835936, 214.070012)"><g><path d="M 3.640625 -6.296875 L 6.375 0 L 5.578125 0 L 4.921875 -1.515625 L 1.53125 -1.515625 L 0.875 0 L 0.0625 0 L 2.8125 -6.296875 Z M 1.828125 -2.21875 L 4.625 -2.21875 L 3.328125 -5.28125 C 3.304688 -5.320312 3.285156 -5.363281 3.265625 -5.40625 C 3.253906 -5.445312 3.238281 -5.488281 3.21875 -5.53125 C 3.195312 -5.488281 3.179688 -5.445312 3.171875 -5.40625 C 3.160156 -5.363281 3.144531 -5.320312 3.125 -5.28125 Z M 1.828125 -2.21875 "/></g></g></g><g fill="#e6e6e6" fill-opacity="1"><g transform="translate(268.982992, 214.070012)"><g/></g></g><g fill="#e6e6e6" fill-opacity="1"><g transform="translate(270.918016, 214.070012)"><g><path d="M 2.34375 0 L 2.34375 -5.578125 L 0.125 -5.578125 L 0.125 -6.296875 L 5.3125 -6.296875 L 5.3125 -5.578125 L 3.09375 -5.578125 L 3.09375 0 Z M 2.34375 0 "/></g></g></g><g fill="#e6e6e6" fill-opacity="1"><g transform="translate(276.048062, 214.070012)"><g><path d="M 4.46875 0 L 0.875 0 L 0.875 -6.421875 L 4.46875 -6.421875 L 4.46875 -5.71875 L 1.6875 -5.71875 L 1.6875 -3.703125 L 4.296875 -3.703125 L 4.296875 -3 L 1.6875 -3 L 1.6875 -0.71875 L 4.46875 -0.71875 Z M 3.921875 -9.328125 C 4.203125 -9.328125 4.414062 -9.273438 4.5625 -9.171875 C 4.707031 -9.066406 4.78125 -8.910156 4.78125 -8.703125 C 4.78125 -8.523438 4.726562 -8.394531 4.625 -8.3125 C 4.519531 -8.226562 4.390625 -8.164062 4.234375 -8.125 L 4.203125 -7.78125 L 3.828125 -7.78125 L 3.796875 -8.34375 C 3.960938 -8.363281 4.085938 -8.394531 4.171875 -8.4375 C 4.265625 -8.488281 4.3125 -8.570312 4.3125 -8.6875 C 4.3125 -8.789062 4.269531 -8.859375 4.1875 -8.890625 C 4.113281 -8.929688 4.015625 -8.953125 3.890625 -8.953125 C 3.753906 -8.953125 3.648438 -8.941406 3.578125 -8.921875 L 3.578125 -9.296875 C 3.648438 -9.316406 3.765625 -9.328125 3.921875 -9.328125 Z M 3.078125 -8.203125 C 3.210938 -7.992188 3.363281 -7.789062 3.53125 -7.59375 C 3.707031 -7.394531 3.875 -7.210938 4.03125 -7.046875 L 4.03125 -6.9375 L 3.59375 -6.9375 C 3.4375 -7.03125 3.28125 -7.140625 3.125 -7.265625 C 2.96875 -7.390625 2.816406 -7.523438 2.671875 -7.671875 C 2.515625 -7.523438 2.359375 -7.390625 2.203125 -7.265625 C 2.046875 -7.140625 1.890625 -7.03125 1.734375 -6.9375 L 1.296875 -6.9375 L 1.296875 -7.046875 C 1.441406 -7.210938 1.601562 -7.394531 1.78125 -7.59375 C 1.957031 -7.789062 2.113281 -7.992188 2.25 -8.203125 Z M 3.078125 -8.203125 "/></g></g></g><g fill="#e6e6e6" fill-opacity="1"><g transform="translate(115.871987, 223.820011)"><g><path d="M 0.828125 0 L 0.828125 -6.296875 L 1.578125 -6.296875 L 1.578125 -0.71875 L 5.078125 -0.71875 L 5.078125 0 Z M 0.828125 0 "/></g></g></g><g fill="#e6e6e6" fill-opacity="1"><g transform="translate(120.777027, 223.820011)"><g><path d="M 5.765625 -6.421875 L 5.765625 -5.546875 C 6.054688 -5.585938 6.242188 -5.722656 6.328125 -5.953125 C 6.421875 -6.191406 6.46875 -6.488281 6.46875 -6.84375 L 7.296875 -6.84375 L 7.359375 -6.734375 C 7.316406 -6.453125 7.238281 -6.191406 7.125 -5.953125 C 7.007812 -5.710938 6.84375 -5.507812 6.625 -5.34375 C 6.414062 -5.175781 6.128906 -5.0625 5.765625 -5 L 5.765625 -2.265625 C 5.765625 -1.828125 5.675781 -1.425781 5.5 -1.0625 C 5.332031 -0.707031 5.066406 -0.425781 4.703125 -0.21875 C 4.347656 -0.0078125 3.890625 0.09375 3.328125 0.09375 C 2.503906 0.09375 1.878906 -0.125 1.453125 -0.5625 C 1.023438 -1 0.8125 -1.570312 0.8125 -2.28125 L 0.8125 -6.421875 L 1.625 -6.421875 L 1.625 -2.25 C 1.625 -1.726562 1.765625 -1.320312 2.046875 -1.03125 C 2.328125 -0.75 2.757812 -0.609375 3.34375 -0.609375 C 3.726562 -0.609375 4.039062 -0.675781 4.28125 -0.8125 C 4.519531 -0.957031 4.691406 -1.15625 4.796875 -1.40625 C 4.898438 -1.65625 4.953125 -1.941406 4.953125 -2.265625 L 4.953125 -6.421875 Z M 5.765625 -6.421875 "/></g></g></g><g fill="#e6e6e6" fill-opacity="1"><g transform="translate(127.491081, 223.820011)"><g><path d="M 6.46875 -3.21875 C 6.46875 -2.550781 6.359375 -1.96875 6.140625 -1.46875 C 5.921875 -0.976562 5.585938 -0.59375 5.140625 -0.3125 C 4.703125 -0.0390625 4.160156 0.09375 3.515625 0.09375 C 2.847656 0.09375 2.296875 -0.0390625 1.859375 -0.3125 C 1.421875 -0.59375 1.09375 -0.984375 0.875 -1.484375 C 0.65625 -1.984375 0.546875 -2.566406 0.546875 -3.234375 C 0.546875 -3.890625 0.65625 -4.460938 0.875 -4.953125 C 1.09375 -5.453125 1.421875 -5.835938 1.859375 -6.109375 C 2.296875 -6.390625 2.851562 -6.53125 3.53125 -6.53125 C 4.019531 -6.53125 4.445312 -6.445312 4.8125 -6.28125 C 5.1875 -6.113281 5.5 -5.882812 5.75 -5.59375 C 6 -5.65625 6.15625 -5.800781 6.21875 -6.03125 C 6.289062 -6.257812 6.328125 -6.53125 6.328125 -6.84375 L 7.1875 -6.84375 L 7.25 -6.734375 C 7.175781 -6.378906 7.054688 -6.050781 6.890625 -5.75 C 6.722656 -5.457031 6.445312 -5.242188 6.0625 -5.109375 C 6.332031 -4.597656 6.46875 -3.96875 6.46875 -3.21875 Z M 1.40625 -3.21875 C 1.40625 -2.40625 1.570312 -1.765625 1.90625 -1.296875 C 2.25 -0.835938 2.785156 -0.609375 3.515625 -0.609375 C 4.242188 -0.609375 4.773438 -0.835938 5.109375 -1.296875 C 5.441406 -1.765625 5.609375 -2.40625 5.609375 -3.21875 C 5.609375 -4.019531 5.441406 -4.648438 5.109375 -5.109375 C 4.785156 -5.578125 4.257812 -5.8125 3.53125 -5.8125 C 2.789062 -5.8125 2.25 -5.578125 1.90625 -5.109375 C 1.570312 -4.648438 1.40625 -4.019531 1.40625 -3.21875 Z M 3.296875 -8.5 C 3.359375 -8.375 3.4375 -8.226562 3.53125 -8.0625 C 3.632812 -7.894531 3.738281 -7.726562 3.84375 -7.5625 C 3.957031 -7.40625 4.0625 -7.273438 4.15625 -7.171875 L 4.15625 -7.0625 L 3.625 -7.0625 C 3.488281 -7.164062 3.332031 -7.300781 3.15625 -7.46875 C 2.976562 -7.644531 2.816406 -7.816406 2.671875 -7.984375 C 2.523438 -8.160156 2.414062 -8.300781 2.34375 -8.40625 L 2.34375 -8.5 Z M 3.296875 -8.5 "/></g></g></g><g fill="#e6e6e6" fill-opacity="1"><g transform="translate(134.241138, 223.820011)"><g><path d="M 0.828125 0 L 0.828125 -6.296875 L 1.578125 -6.296875 L 1.578125 0 Z M 0.828125 0 "/></g></g></g><g fill="#e6e6e6" fill-opacity="1"><g transform="translate(136.347159, 223.820011)"><g/></g></g><g fill="#e6e6e6" fill-opacity="1"><g transform="translate(138.282184, 223.820011)"><g><path d="M 0.828125 0 L 0.828125 -6.296875 L 3.40625 -6.296875 C 4.050781 -6.296875 4.566406 -6.164062 4.953125 -5.90625 C 5.347656 -5.644531 5.546875 -5.242188 5.546875 -4.703125 C 5.546875 -4.441406 5.492188 -4.210938 5.390625 -4.015625 C 5.296875 -3.828125 5.171875 -3.675781 5.015625 -3.5625 C 4.867188 -3.445312 4.710938 -3.363281 4.546875 -3.3125 C 4.722656 -3.257812 4.90625 -3.175781 5.09375 -3.0625 C 5.289062 -2.945312 5.457031 -2.78125 5.59375 -2.5625 C 5.738281 -2.34375 5.8125 -2.066406 5.8125 -1.734375 C 5.8125 -1.367188 5.734375 -1.070312 5.578125 -0.84375 C 5.421875 -0.625 5.222656 -0.453125 4.984375 -0.328125 C 4.742188 -0.203125 4.488281 -0.113281 4.21875 -0.0625 C 3.957031 -0.0195312 3.710938 0 3.484375 0 Z M 1.578125 -3.625 L 3.5625 -3.625 C 3.78125 -3.625 3.984375 -3.65625 4.171875 -3.71875 C 4.359375 -3.78125 4.503906 -3.878906 4.609375 -4.015625 C 4.722656 -4.160156 4.78125 -4.351562 4.78125 -4.59375 C 4.78125 -4.96875 4.648438 -5.222656 4.390625 -5.359375 C 4.140625 -5.503906 3.789062 -5.578125 3.34375 -5.578125 L 1.578125 -5.578125 Z M 1.578125 -0.71875 L 3.328125 -0.71875 C 3.523438 -0.71875 3.722656 -0.726562 3.921875 -0.75 C 4.128906 -0.769531 4.316406 -0.8125 4.484375 -0.875 C 4.648438 -0.945312 4.785156 -1.054688 4.890625 -1.203125 C 4.992188 -1.347656 5.046875 -1.550781 5.046875 -1.8125 C 5.046875 -2.050781 4.992188 -2.242188 4.890625 -2.390625 C 4.796875 -2.535156 4.671875 -2.644531 4.515625 -2.71875 C 4.359375 -2.789062 4.191406 -2.835938 4.015625 -2.859375 C 3.847656 -2.878906 3.6875 -2.890625 3.53125 -2.890625 L 1.578125 -2.890625 Z M 1.578125 -0.71875 "/></g></g></g><g fill="#e6e6e6" fill-opacity="1"><g transform="translate(144.195231, 223.820011)"><g><path d="M 0.828125 0 L 0.828125 -6.296875 L 1.578125 -6.296875 L 1.578125 0 Z M 0.828125 0 "/></g></g></g><g fill="#e6e6e6" fill-opacity="1"><g transform="translate(146.301253, 223.820011)"><g><path d="M 1.515625 -6.9375 L 2.703125 -8.25 L 3.359375 -8.25 L 4.546875 -6.9375 L 3.71875 -6.9375 L 3.03125 -7.71875 L 2.34375 -6.9375 Z M 0.828125 0 L 0.828125 -6.296875 L 5.078125 -6.296875 L 5.078125 -5.578125 L 1.578125 -5.578125 L 1.578125 -3.53125 L 4.8125 -3.53125 L 4.8125 -2.8125 L 1.578125 -2.8125 L 1.578125 -0.71875 L 5.125 -0.71875 L 5.125 0 Z M 0.828125 0 "/></g></g></g><g fill="#e6e6e6" fill-opacity="1"><g transform="translate(152.745249, 221.867008)"><g><path d="M -4 -6.9375 L -3.1875 -8.25 L -2.28125 -8.25 L -3.21875 -6.9375 Z M -4 -6.9375 "/></g></g></g><g fill="#e6e6e6" fill-opacity="1"><g transform="translate(151.575296, 223.820011)"><g><path d="M 0.828125 0 L 0.828125 -6.296875 L 1.53125 -6.296875 L 5.3125 -1.265625 L 5.3125 -6.296875 L 6.078125 -6.296875 L 6.078125 0 L 5.375 0 L 1.578125 -5.046875 L 1.578125 0 Z M 0.828125 0 "/></g></g></g><g fill="#e6e6e6" fill-opacity="1"><g transform="translate(158.172357, 223.820011)"><g><path d="M 0.1875 1.34375 L 0.6875 -0.71875 L 1.453125 -0.71875 L 0.78125 1.34375 Z M 0.1875 1.34375 "/></g></g></g><g fill="#e6e6e6" fill-opacity="1"><g transform="translate(159.882379, 223.820011)"><g/></g></g><g fill="#e6e6e6" fill-opacity="1"><g transform="translate(161.817403, 223.820011)"><g><path d="M 2.21875 -6.9375 L 3.40625 -8.25 L 4.046875 -8.25 L 5.234375 -6.9375 L 4.421875 -6.9375 L 3.71875 -7.71875 L 3.03125 -6.9375 Z M 3.703125 0.109375 C 3.148438 0.109375 2.664062 0.0195312 2.25 -0.15625 C 1.84375 -0.34375 1.5 -0.59375 1.21875 -0.90625 C 0.945312 -1.21875 0.742188 -1.566406 0.609375 -1.953125 C 0.472656 -2.335938 0.40625 -2.738281 0.40625 -3.15625 C 0.40625 -3.5625 0.472656 -3.957031 0.609375 -4.34375 C 0.742188 -4.726562 0.945312 -5.078125 1.21875 -5.390625 C 1.5 -5.703125 1.84375 -5.945312 2.25 -6.125 C 2.664062 -6.3125 3.148438 -6.40625 3.703125 -6.40625 C 4.253906 -6.40625 4.734375 -6.3125 5.140625 -6.125 C 5.554688 -5.945312 5.898438 -5.703125 6.171875 -5.390625 C 6.453125 -5.078125 6.660156 -4.726562 6.796875 -4.34375 C 6.929688 -3.957031 7 -3.5625 7 -3.15625 C 7 -2.738281 6.929688 -2.335938 6.796875 -1.953125 C 6.660156 -1.566406 6.453125 -1.21875 6.171875 -0.90625 C 5.898438 -0.59375 5.554688 -0.34375 5.140625 -0.15625 C 4.734375 0.0195312 4.253906 0.109375 3.703125 0.109375 Z M 3.703125 -0.609375 C 4.128906 -0.609375 4.5 -0.675781 4.8125 -0.8125 C 5.132812 -0.957031 5.398438 -1.148438 5.609375 -1.390625 C 5.816406 -1.628906 5.972656 -1.898438 6.078125 -2.203125 C 6.179688 -2.503906 6.234375 -2.820312 6.234375 -3.15625 C 6.234375 -3.476562 6.179688 -3.789062 6.078125 -4.09375 C 5.972656 -4.394531 5.816406 -4.664062 5.609375 -4.90625 C 5.398438 -5.144531 5.132812 -5.332031 4.8125 -5.46875 C 4.5 -5.613281 4.128906 -5.6875 3.703125 -5.6875 C 3.273438 -5.6875 2.898438 -5.613281 2.578125 -5.46875 C 2.265625 -5.332031 2 -5.144531 1.78125 -4.90625 C 1.570312 -4.664062 1.414062 -4.394531 1.3125 -4.09375 C 1.21875 -3.789062 1.171875 -3.476562 1.171875 -3.15625 C 1.171875 -2.820312 1.21875 -2.503906 1.3125 -2.203125 C 1.414062 -1.898438 1.570312 -1.628906 1.78125 -1.390625 C 2 -1.148438 2.265625 -0.957031 2.578125 -0.8125 C 2.898438 -0.675781 3.273438 -0.609375 3.703125 -0.609375 Z M 3.703125 -0.609375 "/></g></g></g><g fill="#e6e6e6" fill-opacity="1"><g transform="translate(168.909466, 223.820011)"><g><path d="M 0.828125 0 L 0.828125 -6.296875 L 1.53125 -6.296875 L 5.3125 -1.265625 L 5.3125 -6.296875 L 6.078125 -6.296875 L 6.078125 0 L 5.375 0 L 1.578125 -5.046875 L 1.578125 0 Z M 0.828125 0 "/></g></g></g><g fill="#e6e6e6" fill-opacity="1"><g transform="translate(175.506527, 223.820011)"><g><path d="M 3.828125 0.109375 C 3.398438 0.109375 2.984375 0.0507812 2.578125 -0.0625 C 2.171875 -0.1875 1.800781 -0.375 1.46875 -0.625 C 1.144531 -0.882812 0.882812 -1.222656 0.6875 -1.640625 C 0.5 -2.054688 0.40625 -2.5625 0.40625 -3.15625 C 0.40625 -3.6875 0.5 -4.15625 0.6875 -4.5625 C 0.882812 -4.976562 1.140625 -5.320312 1.453125 -5.59375 C 1.773438 -5.863281 2.132812 -6.066406 2.53125 -6.203125 C 2.925781 -6.335938 3.335938 -6.40625 3.765625 -6.40625 C 4.097656 -6.40625 4.425781 -6.367188 4.75 -6.296875 C 5.070312 -6.222656 5.375 -6.117188 5.65625 -5.984375 L 5.65625 -5.234375 C 5.414062 -5.390625 5.140625 -5.503906 4.828125 -5.578125 C 4.515625 -5.648438 4.195312 -5.6875 3.875 -5.6875 C 3.539062 -5.6875 3.210938 -5.640625 2.890625 -5.546875 C 2.566406 -5.453125 2.273438 -5.300781 2.015625 -5.09375 C 1.765625 -4.882812 1.5625 -4.617188 1.40625 -4.296875 C 1.25 -3.984375 1.171875 -3.601562 1.171875 -3.15625 C 1.171875 -2.675781 1.25 -2.273438 1.40625 -1.953125 C 1.5625 -1.628906 1.769531 -1.367188 2.03125 -1.171875 C 2.300781 -0.972656 2.59375 -0.828125 2.90625 -0.734375 C 3.226562 -0.648438 3.554688 -0.609375 3.890625 -0.609375 C 4.097656 -0.609375 4.300781 -0.628906 4.5 -0.671875 C 4.707031 -0.710938 4.890625 -0.769531 5.046875 -0.84375 L 5.046875 -3.34375 L 5.8125 -3.34375 L 5.8125 -0.3125 C 5.507812 -0.175781 5.1875 -0.0703125 4.84375 0 C 4.507812 0.0703125 4.171875 0.109375 3.828125 0.109375 Z M 3.828125 0.109375 "/></g></g></g><g fill="#e6e6e6" fill-opacity="1"><g transform="translate(181.545574, 223.820011)"><g/></g></g><g fill="#e6e6e6" fill-opacity="1"><g transform="translate(183.480598, 223.820011)"><g><path d="M 0.828125 0 L 0.828125 -6.296875 L 1.578125 -6.296875 L 1.578125 -3.515625 L 5.3125 -3.515625 L 5.3125 -6.296875 L 6.078125 -6.296875 L 6.078125 0 L 5.3125 0 L 5.3125 -2.796875 L 1.578125 -2.796875 L 1.578125 0 Z M 0.828125 0 "/></g></g></g><g fill="#e6e6e6" fill-opacity="1"><g transform="translate(190.077659, 223.820011)"><g><path d="M 3.703125 0.109375 C 3.148438 0.109375 2.664062 0.0195312 2.25 -0.15625 C 1.84375 -0.34375 1.5 -0.59375 1.21875 -0.90625 C 0.945312 -1.21875 0.742188 -1.566406 0.609375 -1.953125 C 0.472656 -2.335938 0.40625 -2.738281 0.40625 -3.15625 C 0.40625 -3.5625 0.472656 -3.957031 0.609375 -4.34375 C 0.742188 -4.726562 0.945312 -5.078125 1.21875 -5.390625 C 1.5 -5.703125 1.84375 -5.945312 2.25 -6.125 C 2.664062 -6.3125 3.148438 -6.40625 3.703125 -6.40625 C 4.253906 -6.40625 4.734375 -6.3125 5.140625 -6.125 C 5.554688 -5.945312 5.898438 -5.703125 6.171875 -5.390625 C 6.453125 -5.078125 6.660156 -4.726562 6.796875 -4.34375 C 6.929688 -3.957031 7 -3.5625 7 -3.15625 C 7 -2.738281 6.929688 -2.335938 6.796875 -1.953125 C 6.660156 -1.566406 6.453125 -1.21875 6.171875 -0.90625 C 5.898438 -0.59375 5.554688 -0.34375 5.140625 -0.15625 C 4.734375 0.0195312 4.253906 0.109375 3.703125 0.109375 Z M 3.703125 -0.609375 C 4.128906 -0.609375 4.5 -0.675781 4.8125 -0.8125 C 5.132812 -0.957031 5.398438 -1.148438 5.609375 -1.390625 C 5.816406 -1.628906 5.972656 -1.898438 6.078125 -2.203125 C 6.179688 -2.503906 6.234375 -2.820312 6.234375 -3.15625 C 6.234375 -3.476562 6.179688 -3.789062 6.078125 -4.09375 C 5.972656 -4.394531 5.816406 -4.664062 5.609375 -4.90625 C 5.398438 -5.144531 5.132812 -5.332031 4.8125 -5.46875 C 4.5 -5.613281 4.128906 -5.6875 3.703125 -5.6875 C 3.273438 -5.6875 2.898438 -5.613281 2.578125 -5.46875 C 2.265625 -5.332031 2 -5.144531 1.78125 -4.90625 C 1.570312 -4.664062 1.414062 -4.394531 1.3125 -4.09375 C 1.21875 -3.789062 1.171875 -3.476562 1.171875 -3.15625 C 1.171875 -2.820312 1.21875 -2.503906 1.3125 -2.203125 C 1.414062 -1.898438 1.570312 -1.628906 1.78125 -1.390625 C 2 -1.148438 2.265625 -0.957031 2.578125 -0.8125 C 2.898438 -0.675781 3.273438 -0.609375 3.703125 -0.609375 Z M 3.703125 -0.609375 "/></g></g></g><g fill="#e6e6e6" fill-opacity="1"><g transform="translate(197.169722, 223.820011)"><g><path d="M 3.8125 -6.9375 L 3.03125 -6.9375 L 2.09375 -8.25 L 2.984375 -8.25 Z M 3.640625 -6.296875 L 6.375 0 L 5.578125 0 L 4.921875 -1.515625 L 1.53125 -1.515625 L 0.875 0 L 0.0625 0 L 2.8125 -6.296875 Z M 1.828125 -2.21875 L 4.625 -2.21875 L 3.328125 -5.28125 C 3.304688 -5.320312 3.285156 -5.363281 3.265625 -5.40625 C 3.253906 -5.445312 3.238281 -5.488281 3.21875 -5.53125 C 3.195312 -5.488281 3.179688 -5.445312 3.171875 -5.40625 C 3.160156 -5.363281 3.144531 -5.320312 3.125 -5.28125 Z M 1.828125 -2.21875 "/></g></g></g><g fill="#e6e6e6" fill-opacity="1"><g transform="translate(203.316778, 223.820011)"><g><path d="M 0.828125 0 L 0.828125 -6.296875 L 1.53125 -6.296875 L 5.3125 -1.265625 L 5.3125 -6.296875 L 6.078125 -6.296875 L 6.078125 0 L 5.375 0 L 1.578125 -5.046875 L 1.578125 0 Z M 0.828125 0 "/></g></g></g><g fill="#e6e6e6" fill-opacity="1"><g transform="translate(209.913839, 223.820011)"><g><path d="M 3.828125 0.109375 C 3.398438 0.109375 2.984375 0.0507812 2.578125 -0.0625 C 2.171875 -0.1875 1.800781 -0.375 1.46875 -0.625 C 1.144531 -0.882812 0.882812 -1.222656 0.6875 -1.640625 C 0.5 -2.054688 0.40625 -2.5625 0.40625 -3.15625 C 0.40625 -3.6875 0.5 -4.15625 0.6875 -4.5625 C 0.882812 -4.976562 1.140625 -5.320312 1.453125 -5.59375 C 1.773438 -5.863281 2.132812 -6.066406 2.53125 -6.203125 C 2.925781 -6.335938 3.335938 -6.40625 3.765625 -6.40625 C 4.097656 -6.40625 4.425781 -6.367188 4.75 -6.296875 C 5.070312 -6.222656 5.375 -6.117188 5.65625 -5.984375 L 5.65625 -5.234375 C 5.414062 -5.390625 5.140625 -5.503906 4.828125 -5.578125 C 4.515625 -5.648438 4.195312 -5.6875 3.875 -5.6875 C 3.539062 -5.6875 3.210938 -5.640625 2.890625 -5.546875 C 2.566406 -5.453125 2.273438 -5.300781 2.015625 -5.09375 C 1.765625 -4.882812 1.5625 -4.617188 1.40625 -4.296875 C 1.25 -3.984375 1.171875 -3.601562 1.171875 -3.15625 C 1.171875 -2.675781 1.25 -2.273438 1.40625 -1.953125 C 1.5625 -1.628906 1.769531 -1.367188 2.03125 -1.171875 C 2.300781 -0.972656 2.59375 -0.828125 2.90625 -0.734375 C 3.226562 -0.648438 3.554688 -0.609375 3.890625 -0.609375 C 4.097656 -0.609375 4.300781 -0.628906 4.5 -0.671875 C 4.707031 -0.710938 4.890625 -0.769531 5.046875 -0.84375 L 5.046875 -3.34375 L 5.8125 -3.34375 L 5.8125 -0.3125 C 5.507812 -0.175781 5.1875 -0.0703125 4.84375 0 C 4.507812 0.0703125 4.171875 0.109375 3.828125 0.109375 Z M 3.828125 0.109375 "/></g></g></g><g fill="#e6e6e6" fill-opacity="1"><g transform="translate(215.952886, 223.820011)"><g/></g></g><g fill="#e6e6e6" fill-opacity="1"><g transform="translate(217.88791, 223.820011)"><g><path d="M 2.34375 0 L 2.34375 -5.578125 L 0.125 -5.578125 L 0.125 -6.296875 L 5.3125 -6.296875 L 5.3125 -5.578125 L 3.09375 -5.578125 L 3.09375 0 Z M 2.34375 0 "/></g></g></g><g fill="#e6e6e6" fill-opacity="1"><g transform="translate(223.017953, 223.820011)"><g><path d="M 5.765625 -6.421875 L 5.765625 -5.546875 C 6.054688 -5.585938 6.242188 -5.722656 6.328125 -5.953125 C 6.421875 -6.191406 6.46875 -6.488281 6.46875 -6.84375 L 7.296875 -6.84375 L 7.359375 -6.734375 C 7.316406 -6.453125 7.238281 -6.191406 7.125 -5.953125 C 7.007812 -5.710938 6.84375 -5.507812 6.625 -5.34375 C 6.414062 -5.175781 6.128906 -5.0625 5.765625 -5 L 5.765625 -2.265625 C 5.765625 -1.828125 5.675781 -1.425781 5.5 -1.0625 C 5.332031 -0.707031 5.066406 -0.425781 4.703125 -0.21875 C 4.347656 -0.0078125 3.890625 0.09375 3.328125 0.09375 C 2.503906 0.09375 1.878906 -0.125 1.453125 -0.5625 C 1.023438 -1 0.8125 -1.570312 0.8125 -2.28125 L 0.8125 -6.421875 L 1.625 -6.421875 L 1.625 -2.25 C 1.625 -1.726562 1.765625 -1.320312 2.046875 -1.03125 C 2.328125 -0.75 2.757812 -0.609375 3.34375 -0.609375 C 3.726562 -0.609375 4.039062 -0.675781 4.28125 -0.8125 C 4.519531 -0.957031 4.691406 -1.15625 4.796875 -1.40625 C 4.898438 -1.65625 4.953125 -1.941406 4.953125 -2.265625 L 4.953125 -6.421875 Z M 5.765625 -6.421875 "/></g></g></g><g fill="#e6e6e6" fill-opacity="1"><g transform="translate(229.732007, 223.820011)"><g/></g></g><g fill="#e6e6e6" fill-opacity="1"><g transform="translate(231.667031, 223.820011)"><g><path d="M 0.828125 0 L 0.828125 -6.296875 L 3.40625 -6.296875 C 4.050781 -6.296875 4.566406 -6.164062 4.953125 -5.90625 C 5.347656 -5.644531 5.546875 -5.242188 5.546875 -4.703125 C 5.546875 -4.441406 5.492188 -4.210938 5.390625 -4.015625 C 5.296875 -3.828125 5.171875 -3.675781 5.015625 -3.5625 C 4.867188 -3.445312 4.710938 -3.363281 4.546875 -3.3125 C 4.722656 -3.257812 4.90625 -3.175781 5.09375 -3.0625 C 5.289062 -2.945312 5.457031 -2.78125 5.59375 -2.5625 C 5.738281 -2.34375 5.8125 -2.066406 5.8125 -1.734375 C 5.8125 -1.367188 5.734375 -1.070312 5.578125 -0.84375 C 5.421875 -0.625 5.222656 -0.453125 4.984375 -0.328125 C 4.742188 -0.203125 4.488281 -0.113281 4.21875 -0.0625 C 3.957031 -0.0195312 3.710938 0 3.484375 0 Z M 1.578125 -3.625 L 3.5625 -3.625 C 3.78125 -3.625 3.984375 -3.65625 4.171875 -3.71875 C 4.359375 -3.78125 4.503906 -3.878906 4.609375 -4.015625 C 4.722656 -4.160156 4.78125 -4.351562 4.78125 -4.59375 C 4.78125 -4.96875 4.648438 -5.222656 4.390625 -5.359375 C 4.140625 -5.503906 3.789062 -5.578125 3.34375 -5.578125 L 1.578125 -5.578125 Z M 1.578125 -0.71875 L 3.328125 -0.71875 C 3.523438 -0.71875 3.722656 -0.726562 3.921875 -0.75 C 4.128906 -0.769531 4.316406 -0.8125 4.484375 -0.875 C 4.648438 -0.945312 4.785156 -1.054688 4.890625 -1.203125 C 4.992188 -1.347656 5.046875 -1.550781 5.046875 -1.8125 C 5.046875 -2.050781 4.992188 -2.242188 4.890625 -2.390625 C 4.796875 -2.535156 4.671875 -2.644531 4.515625 -2.71875 C 4.359375 -2.789062 4.191406 -2.835938 4.015625 -2.859375 C 3.847656 -2.878906 3.6875 -2.890625 3.53125 -2.890625 L 1.578125 -2.890625 Z M 1.578125 -0.71875 "/></g></g></g><g fill="#e6e6e6" fill-opacity="1"><g transform="translate(237.580078, 223.820011)"><g><path d="M 4.90625 0 L 4.125 -1.984375 L 1.578125 -1.984375 L 0.8125 0 L 0 0 L 2.515625 -6.453125 L 3.234375 -6.453125 L 5.734375 0 Z M 3.890625 -2.703125 L 3.171875 -4.65625 C 3.148438 -4.695312 3.117188 -4.78125 3.078125 -4.90625 C 3.035156 -5.039062 2.992188 -5.175781 2.953125 -5.3125 C 2.910156 -5.445312 2.878906 -5.546875 2.859375 -5.609375 C 2.816406 -5.429688 2.769531 -5.253906 2.71875 -5.078125 C 2.664062 -4.898438 2.617188 -4.757812 2.578125 -4.65625 L 1.859375 -2.703125 Z M 3.875 -8.046875 C 3.875 -7.828125 3.804688 -7.65625 3.671875 -7.53125 C 3.535156 -7.40625 3.363281 -7.316406 3.15625 -7.265625 L 3.109375 -6.796875 L 2.625 -6.796875 L 2.5625 -7.5625 C 2.769531 -7.59375 2.9375 -7.644531 3.0625 -7.71875 C 3.195312 -7.789062 3.265625 -7.894531 3.265625 -8.03125 C 3.265625 -8.175781 3.207031 -8.269531 3.09375 -8.3125 C 2.988281 -8.363281 2.851562 -8.390625 2.6875 -8.390625 C 2.601562 -8.390625 2.519531 -8.382812 2.4375 -8.375 C 2.363281 -8.363281 2.300781 -8.351562 2.25 -8.34375 L 2.25 -8.8125 C 2.363281 -8.851562 2.53125 -8.875 2.75 -8.875 C 3.101562 -8.875 3.378906 -8.804688 3.578125 -8.671875 C 3.773438 -8.535156 3.875 -8.328125 3.875 -8.046875 Z M 3.875 -8.046875 "/></g></g></g><g fill="#e6e6e6" fill-opacity="1"><g transform="translate(243.025133, 223.820011)"><g><path d="M 0.828125 0 L 0.828125 -6.296875 L 1.53125 -6.296875 L 5.3125 -1.265625 L 5.3125 -6.296875 L 6.078125 -6.296875 L 6.078125 0 L 5.375 0 L 1.578125 -5.046875 L 1.578125 0 Z M 0.828125 0 "/></g></g></g><g fill="#e6e6e6" fill-opacity="1"><g transform="translate(249.622194, 223.820011)"><g/></g></g><g fill="#e6e6e6" fill-opacity="1"><g transform="translate(251.557218, 223.820011)"><g><path d="M 0.59375 -3.625 L 0.59375 -4.3125 L 4.40625 -4.3125 L 4.40625 -3.625 Z M 0.59375 -1.984375 L 0.59375 -2.671875 L 4.40625 -2.671875 L 4.40625 -1.984375 Z M 0.59375 -1.984375 "/></g></g></g><g fill="#e6e6e6" fill-opacity="1"><g transform="translate(256.246263, 223.820011)"><g><path d="M 0.1875 1.359375 C 0.445312 0.972656 0.664062 0.550781 0.84375 0.09375 C 1.019531 -0.363281 1.15625 -0.835938 1.25 -1.328125 C 1.34375 -1.816406 1.390625 -2.296875 1.390625 -2.765625 C 1.390625 -3.242188 1.34375 -3.726562 1.25 -4.21875 C 1.15625 -4.707031 1.019531 -5.179688 0.84375 -5.640625 C 0.664062 -6.109375 0.445312 -6.53125 0.1875 -6.90625 L 0.890625 -6.90625 C 1.148438 -6.53125 1.378906 -6.113281 1.578125 -5.65625 C 1.773438 -5.195312 1.925781 -4.722656 2.03125 -4.234375 C 2.144531 -3.742188 2.203125 -3.253906 2.203125 -2.765625 C 2.203125 -2.285156 2.144531 -1.800781 2.03125 -1.3125 C 1.925781 -0.820312 1.773438 -0.351562 1.578125 0.09375 C 1.378906 0.550781 1.148438 0.972656 0.890625 1.359375 Z M 0.1875 1.359375 "/></g></g></g><g fill="#e6e6e6" fill-opacity="1"><g transform="translate(258.532289, 223.820011)"><g><path d="M 0.1875 1.359375 C 0.445312 0.972656 0.664062 0.550781 0.84375 0.09375 C 1.019531 -0.363281 1.15625 -0.835938 1.25 -1.328125 C 1.34375 -1.816406 1.390625 -2.296875 1.390625 -2.765625 C 1.390625 -3.242188 1.34375 -3.726562 1.25 -4.21875 C 1.15625 -4.707031 1.019531 -5.179688 0.84375 -5.640625 C 0.664062 -6.109375 0.445312 -6.53125 0.1875 -6.90625 L 0.890625 -6.90625 C 1.148438 -6.53125 1.378906 -6.113281 1.578125 -5.65625 C 1.773438 -5.195312 1.925781 -4.722656 2.03125 -4.234375 C 2.144531 -3.742188 2.203125 -3.253906 2.203125 -2.765625 C 2.203125 -2.285156 2.144531 -1.800781 2.03125 -1.3125 C 1.925781 -0.820312 1.773438 -0.351562 1.578125 0.09375 C 1.378906 0.550781 1.148438 0.972656 0.890625 1.359375 Z M 0.1875 1.359375 "/></g></g></g></svg>